<?xml version="1.0" encoding="utf-8"?>
<!-- Generator: Adobe Illustrator 23.0.2, SVG Export Plug-In . SVG Version: 6.00 Build 0)  -->
<svg version="1.1" id="Ñëîé_1" xmlns="http://www.w3.org/2000/svg" xmlns:xlink="http://www.w3.org/1999/xlink" x="0px" y="0px"
	 viewBox="0 0 600 400" style="enable-background:new 0 0 600 400;" xml:space="preserve">
<style type="text/css">
	.st0{fill:#0F054C;}
	.st1{opacity:0.9;fill:url(#SVGID_1_);}
	.st2{opacity:0.8;fill:url(#SVGID_2_);}
	.st3{opacity:0.1;fill:#42E8E0;}
	.st4{opacity:0.67;}
	.st5{fill:#42E8E0;}
	.st6{opacity:0.9;}
	.st7{fill:#080344;}
	.st8{opacity:0.2;fill:url(#SVGID_3_);}
	.st9{opacity:0.4;fill:url(#SVGID_4_);}
	.st10{opacity:0.6;fill:url(#SVGID_5_);}
	.st11{fill:url(#SVGID_6_);}
	.st12{fill:url(#SVGID_7_);}
	.st13{fill:url(#SVGID_8_);}
	.st14{fill:#24126A;}
	.st15{opacity:0.51;}
	.st16{fill:#453C9E;}
	.st17{fill:#5761D7;}
	.st18{fill:#BCBEFF;}
	.st19{fill:#E9E9FD;}
	.st20{opacity:0.67;fill:#0F054C;}
	.st21{fill:#160A5B;}
	.st22{fill:url(#SVGID_9_);}
	.st23{fill:url(#SVGID_10_);}
	.st24{fill:#F0F6FF;}
	.st25{fill:#FCD1C5;}
	.st26{fill:#281B77;}
	.st27{fill:#4846A5;}
	.st28{fill:#AA8383;}
	.st29{fill:#C4CCD6;}
	.st30{fill:#E2B1A6;}
	.st31{fill:url(#SVGID_11_);}
	.st32{fill:#936D6D;}
	.st33{fill:url(#SVGID_12_);}
	.st34{fill:url(#SVGID_13_);}
	.st35{fill:url(#SVGID_14_);}
	.st36{fill:url(#SVGID_15_);}
	.st37{opacity:0.5;fill:#42E8E0;}
	.st38{fill:url(#SVGID_16_);}
	.st39{fill:url(#SVGID_17_);}
	.st40{fill:url(#SVGID_18_);}
	.st41{fill:#FFFFFF;}
	.st42{opacity:0.3;}
	.st43{fill:url(#SVGID_19_);}
	.st44{opacity:0.3;fill:#0F054C;}
	.st45{fill:url(#SVGID_20_);}
	.st46{opacity:0.4;fill:#42E8E0;}
	.st47{fill:url(#SVGID_21_);}
	.st48{fill:url(#SVGID_22_);}
	.st49{fill:url(#SVGID_23_);}
	.st50{fill:url(#SVGID_24_);}
	.st51{fill:url(#SVGID_25_);}
	.st52{fill:url(#SVGID_26_);}
	.st53{opacity:0.11;}
	.st54{fill:url(#SVGID_27_);}
	.st55{fill:url(#SVGID_28_);}
	.st56{fill:url(#SVGID_29_);}
	.st57{fill:url(#SVGID_30_);}
	.st58{opacity:0.5;fill:url(#SVGID_31_);}
	.st59{fill:url(#SVGID_32_);}
	.st60{fill:url(#SVGID_33_);}
	.st61{opacity:0.7;fill:#42E8E0;}
</style>
<rect x="0" transform="matrix(-1 -1.224647e-16 1.224647e-16 -1 600 400)" class="st0" width="600" height="400"/>
<radialGradient id="SVGID_1_" cx="236.2918" cy="215.3332" r="317.881" gradientTransform="matrix(-1 0 0 1 600 0)" gradientUnits="userSpaceOnUse">
	<stop  offset="0" style="stop-color:#5761D7"/>
	<stop  offset="0.0311" style="stop-color:#525BCE"/>
	<stop  offset="0.1763" style="stop-color:#3E41A6"/>
	<stop  offset="0.3263" style="stop-color:#2D2B85"/>
	<stop  offset="0.4803" style="stop-color:#201A6C"/>
	<stop  offset="0.6397" style="stop-color:#160E5A"/>
	<stop  offset="0.8079" style="stop-color:#11074F"/>
	<stop  offset="1" style="stop-color:#0F054C"/>
</radialGradient>
<polygon class="st1" points="2.38,400 602.38,400 602.38,0 2.38,0 "/>
<radialGradient id="SVGID_2_" cx="-3892.7773" cy="120.2221" r="378.423" gradientTransform="matrix(-0.9687 0 0 1.0027 -3157.2214 14.8323)" gradientUnits="userSpaceOnUse">
	<stop  offset="0" style="stop-color:#FF2C9C"/>
	<stop  offset="0.0301" style="stop-color:#F62F9F"/>
	<stop  offset="0.2023" style="stop-color:#C63EB0"/>
	<stop  offset="0.3737" style="stop-color:#9E4BBE"/>
	<stop  offset="0.5413" style="stop-color:#7F54C9"/>
	<stop  offset="0.7039" style="stop-color:#695BD1"/>
	<stop  offset="0.8594" style="stop-color:#5C60D5"/>
	<stop  offset="1" style="stop-color:#5761D7"/>
</radialGradient>
<path class="st2" d="M588.81,88.85c-1.03-0.62-2.71-0.62-3.75,0c-0.78,0.46-0.97,1.15-0.58,1.72l-58.01,34.67l0,43.76l-14.13,8.45
	l0,47.6l-48.41,28.93l-7.54-4.51l37.33-22.31l0-26.09l-0.15-0.09l-42.44-25.36v-8.85l24-14.34c1.04,0.45,2.49,0.4,3.42-0.16
	c1.03-0.62,1.03-1.62,0-2.24c-1.03-0.62-2.71-0.62-3.75,0c-0.93,0.56-1.02,1.42-0.27,2.04l-24,14.34v9.56l0.15,0.09l42.44,25.36
	l0,25.38l-28.2,16.86l0-10.87l12.93-7.73c1.04,0.45,2.49,0.4,3.42-0.16c1.03-0.62,1.03-1.62,0-2.24c-1.03-0.62-2.71-0.62-3.75,0
	c-0.93,0.56-1.02,1.42-0.27,2.04l-12.93,7.73l0,11.58l-8.53,5.1l-10.09-6.03l0-18.93l19.03-11.37l0-13.09l-0.15-0.09l-40.05-23.94
	c0.75-0.62,0.67-1.49-0.27-2.04c-1.03-0.62-2.71-0.62-3.75,0c-1.03,0.62-1.03,1.62,0,2.24c0.93,0.56,2.38,0.61,3.42,0.16l40.2,24.03
	l0,12.38l-18.43,11.02l0-13.05l-0.15-0.09l-24.51-14.64c0.75-0.62,0.67-1.49-0.27-2.04c-1.03-0.62-2.71-0.62-3.75,0
	c-1.03,0.62-1.03,1.62,0,2.24c0.93,0.56,2.38,0.61,3.42,0.16l24.65,14.73l0,31.98l-7.08-4.23l-11.67,6.98l-10.57-6.32l0-15.35
	l-0.15-0.09L387.68,207l0-14.47c0.58-0.04,1.14-0.18,1.58-0.45c1.03-0.62,1.03-1.62,0-2.24c-1.03-0.62-2.71-0.62-3.75,0
	c-1.03,0.62-1.03,1.62,0,2.24c0.44,0.26,1,0.41,1.58,0.45l0,14.83l0.15,0.09l27.95,16.7l0,14.65l-45.49-27.19l0-28.82l24.67-14.74
	l22.64,0l0.07-0.04l38.85-23.22c1.04,0.45,2.49,0.4,3.42-0.16c1.03-0.62,1.03-1.62,0-2.24c-1.03-0.62-2.71-0.62-3.75,0
	c-0.93,0.56-1.02,1.43-0.27,2.04l-38.49,23l-21.46,0l71.37-42.65c1.04,0.45,2.49,0.4,3.42-0.16c1.03-0.62,1.03-1.62,0-2.24
	c-1.03-0.62-2.71-0.62-3.75,0c-0.93,0.56-1.02,1.43-0.27,2.04l-97.07,58.01l0,29.53l0.15,0.09l56.51,33.77l-11.37,6.8l-96.48-57.66
	l0-34.41l-0.15-0.09l-32.81-19.61c0.75-0.62,0.67-1.49-0.27-2.04c-1.03-0.62-2.71-0.62-3.75,0c-1.03,0.62-1.03,1.62,0,2.24
	c0.93,0.56,2.38,0.61,3.42,0.16l32.96,19.7l0,34.41l0.15,0.09l96.33,57.57l-10.83,6.47l-95.41-57.02l-56.9,0l-35.56-21.25l0-32.66
	c0.37-0.08,0.73-0.2,1.03-0.37c1.03-0.62,1.03-1.62,0-2.24c-1.03-0.62-2.71-0.62-3.75,0c-1.03,0.62-1.03,1.62,0,2.24
	c0.58,0.35,1.37,0.49,2.12,0.45l0,32.94l0.15,0.09l35.85,21.42l56.9,0l80.54,48.14l-16.2,0l-27.49-16.43h-21.18l-0.07,0.04
	l-29.37,17.55c-1.04-0.45-2.49-0.4-3.42,0.16c-1.03,0.62-1.03,1.62,0,2.24c1.03,0.62,2.71,0.62,3.75,0
	c0.93-0.56,1.02-1.43,0.27-2.04l29-17.33h20.86l27.49,16.43l17.39,0l13.41,8.01l-28.9,17.27l-8.22-4.91v-12.89l-20.88-12.48
	c0.75-0.62,0.67-1.49-0.27-2.04c-1.03-0.62-2.71-0.62-3.75,0c-1.03,0.62-1.03,1.62,0,2.24c0.93,0.56,2.38,0.61,3.42,0.16
	l20.88,12.48v12.18L342.4,258.5h-10.54l-0.07,0.04l-12.57,7.51c-1.04-0.45-2.49-0.4-3.42,0.16c-1.03,0.62-1.03,1.62,0,2.24
	c1.03,0.62,2.71,0.62,3.75,0c0.93-0.56,1.02-1.43,0.27-2.04l12.2-7.29h10.22l30.64,18.31l-5.57,3.33l17.77,10.62l-8.32,4.97h-12.58
	l-9-5.38c0.72-0.62,0.62-1.47-0.3-2.02c-1.03-0.62-2.71-0.62-3.75,0c-1.03,0.62-1.03,1.62,0,2.24c0.95,0.57,2.42,0.61,3.46,0.14
	l9.43,5.63h11.71l-21.21,12.68l-49.91-29.83l-35.91,0l-0.07,0.04l-20.22,12.08c-1.04-0.45-2.49-0.4-3.42,0.16
	c-1.03,0.62-1.03,1.62,0,2.24c1.03,0.62,2.71,0.62,3.75,0c0.93-0.56,1.02-1.43,0.27-2.04l19.86-11.87l35.6,0l38.5,23.01h-16.48
	l-16.11-9.62c0.75-0.62,0.67-1.49-0.27-2.04c-1.03-0.62-2.71-0.62-3.75,0c-1.03,0.62-1.03,1.62,0,2.24
	c0.93,0.56,2.38,0.61,3.42,0.16l16.54,9.88h17.66l9.96,5.95l-25.34,15.14l-80.99,0l-62.92-37.6c0.75-0.62,0.67-1.49-0.27-2.04
	c-1.03-0.62-2.71-0.62-3.75,0c-1.03,0.62-1.03,1.62,0,2.24c0.93,0.56,2.38,0.61,3.42,0.16l63.35,37.86l80.12,0l-10.05,6.01l-59.95,0
	l-0.07,0.04l-29.56,17.67c-1.04-0.45-2.49-0.4-3.42,0.16c-1.03,0.62-1.03,1.62,0,2.24c1.03,0.62,2.71,0.62,3.75,0
	c0.93-0.56,1.02-1.43,0.27-2.04l29.2-17.45l59.95,0l0.07-0.04l67.94-40.6l7.54,4.51l-71.43,42.69h-52.24l-0.07,0.04l-63.1,37.71
	l-87.41,0l-16.9-10.1v0.71l16.74,10l87.73,0l0.07-0.04l39.6-23.66l0,14.01l-26.1,15.6c-1.04-0.45-2.49-0.4-3.42,0.16
	c-1.03,0.62-1.03,1.62,0,2.24c1.03,0.62,2.71,0.62,3.75,0c0.93-0.56,1.02-1.43,0.27-2.04l26.1-15.6l0-14.63h-0.14l23.04-13.77h52.24
	l0.07-0.04l71.79-42.9l8.57,5.12l-139.3,83.25l0,15.04h0.59l0-14.69l139.3-83.25l10.59,6.33l-71.86,42.94l0,7.68l-12.74,7.61v17.66
	l-24.71,14.76c-1.04-0.45-2.49-0.4-3.42,0.16c-0.38,0.23-0.61,0.5-0.72,0.79h5.17c-0.08-0.21-0.22-0.42-0.44-0.6l24.71-14.76v-17.66
	l12.15-7.26l0,28.28l7.17,4.28L335.95,400h1.19l12.33-7.37l12.33,7.37h1.19l-20.68-12.36l0-35.95l71.86-42.94l9.64,5.76
	l-50.85,30.39c-1.04-0.45-2.49-0.4-3.42,0.16c-1.03,0.62-1.03,1.62,0,2.24c1.03,0.62,2.71,0.62,3.75,0
	c0.93-0.56,1.02-1.42,0.27-2.04l50.85-30.39l9.3,5.56l-60.83,36.35h-16.53c-0.1-0.3-0.34-0.58-0.73-0.81
	c-1.03-0.62-2.71-0.62-3.75,0c-1.03,0.62-1.03,1.62,0,2.24c1.03,0.62,2.71,0.62,3.75,0c0.39-0.23,0.63-0.51,0.73-0.81h16.69
	l0.07-0.04l61.19-36.57l3.76,2.24l2.89-1.73l14.57,8.71l0,12.12l-12.04,7.2v-0.03h-18.89l-0.07,0.04l-20.73,12.39
	c-1.04-0.45-2.49-0.4-3.42,0.16c-1.03,0.62-1.03,1.62,0,2.24c1.03,0.62,2.71,0.62,3.75,0c0.93-0.56,1.02-1.43,0.27-2.04l20.37-12.17
	h17.76l-35.4,21.15c-1.04-0.48-2.54-0.45-3.49,0.12c-1.03,0.62-1.03,1.62,0,2.24c1.03,0.62,2.71,0.62,3.75,0
	c0.91-0.54,1.02-1.38,0.33-2l44.15-26.39l0,5.83l-26.27,15.7v11.08l-21.39,12.78c-1.04-0.45-2.49-0.4-3.42,0.16
	c-1.03,0.62-1.03,1.62,0,2.24c1.03,0.62,2.71,0.62,3.75,0c0.93-0.56,1.02-1.43,0.27-2.04L426.14,378v-11.08l26.27-15.7l0-6.54
	l3.68-2.2l0-12.83l-14.57-8.71l9.58-5.72l29.99,17.92l0,20.37l-20.36,12.17c-1.04-0.48-2.54-0.45-3.49,0.12
	c-1.03,0.62-1.03,1.62,0,2.24c1.03,0.62,2.71,0.62,3.75,0c0.91-0.54,1.02-1.38,0.33-2l19.78-11.82l0,16.46l-15.63,9.34l0,19.98h0.59
	l0-19.63l15.04-8.99l0,28.62h0.59l0-67.22l-29.99-17.92l10.75-6.43l39.2,23.42l0,55.79l18.84,11.26l0,1.1h0.59v-1.45l-18.84-11.26
	l0-55.79l-39.2-23.42l7.97-4.76l52.9,31.61l0,47.6L553.14,400h1.19l-29.84-17.83l0-47.6l-52.9-31.61l12.92-7.72l88.01,52.6l0,23.69
	l30.16,18.03v-0.71l-29.57-17.67l0-23.69l-49.5-29.58h39.15l39.92,23.86v-0.71l-39.76-23.76h-40.34l-37.48-22.4l15.01-8.97
	l32.22,19.25l51.73,0l18.62,11.13v-0.71l-4.08-2.44l4.08,0v-0.61l-5.11,0l-13.35-7.98l-51.73,0l-9.02-5.39h21.99l0.07-0.04
	l11.03-6.59l45.96,0l0.15,0.09v-0.71l-45.08,0l12.42-7.42c1.04,0.45,2.49,0.4,3.42-0.16c1.03-0.62,1.03-1.62,0-2.24
	c-1.03-0.62-2.71-0.62-3.75,0c-0.93,0.56-1.02,1.43-0.27,2.04l-24.11,14.41h-22.86l-21.74-12.99l8.03-4.8l-5.17-3.09h15.03
	l19.64,11.74c-0.75,0.62-0.67,1.49,0.27,2.04c1.03,0.62,2.71,0.62,3.75,0c1.03-0.62,1.03-1.62,0-2.24
	c-0.93-0.56-2.38-0.61-3.42-0.16l-20.08-12h-16.21l-10.99-6.57l6.76-4.04h11.99l10.54-6.3h7.87l17.77,10.62
	c-0.8,0.62-0.73,1.51,0.22,2.08c1.03,0.62,2.71,0.62,3.75,0c1.03-0.62,1.03-1.62,0-2.24c-0.92-0.55-2.33-0.61-3.36-0.19
	l-18.21-10.89h-8.19l-10.54,6.3h-10.81l21.61-12.92h11.67l24.33,14.54l45.73,0v-0.61l-45.57,0l-24.33-14.54H520.8l-0.07,0.04
	l-29.77,17.79l-7.81-4.67l33.64-20.1l23.73,0l19.57,11.7l42.6,0v-0.61l-42.44,0l-18.55-11.08l60.98,0v-0.61l-86.05,0l-0.07,0.04
	l-34,20.32l-8.87-5.3l46.91-28.03l82.09,0v-0.61l-59.82,0l59.82-35.75v-0.71l-61.01,36.46l-20.65,0l44.47-26.58v-5.86L586.78,186
	c1.04,0.45,2.49,0.4,3.42-0.16c1.03-0.62,1.03-1.62,0-2.24c-1.03-0.62-2.71-0.62-3.75,0c-0.93,0.56-1.02,1.42-0.27,2.04l-11.59,6.92
	l0-16.05l28.09-16.79v-0.71L574,176.16l0,16.76l-9.1,5.44v5.86l-44.84,26.8l0.15,0.27l-47.12,28.16l-8.57-5.12l48.41-28.93l0-47.6
	l89.75-53.64v-0.71l-75.62,45.19l0-43.05L584.94,91c0.04,0.03,0.07,0.06,0.12,0.09c1.03,0.62,2.71,0.62,3.75,0
	C589.84,90.47,589.84,89.47,588.81,88.85z M507.56,280.75l-69.53,41.55l-69.53-41.55l69.53-41.55L507.56,280.75z"/>
<path class="st3" d="M602.68,163.31l-12.36,7.39l0,23.8l-109.8,65.62l-8.34-4.99l56.64-33.85l0-6.05l10.04-6l0-13.92l19.47-11.64
	c0.82,0.35,1.96,0.31,2.7-0.13c0.82-0.49,0.82-1.28,0-1.77c-0.82-0.49-2.14-0.49-2.95,0c-0.74,0.44-0.8,1.12-0.21,1.61l-19.47,11.64
	l0,13.92l-9.57,5.72l0-22.29l-0.12-0.07l-5.53-3.31l33.2-19.84l0-22.31l23.59-14.1c0.82,0.35,1.96,0.31,2.7-0.13
	c0.82-0.49,0.82-1.28,0-1.77c-0.82-0.49-2.14-0.49-2.95,0c-0.74,0.44-0.8,1.12-0.21,1.61l-23.59,14.1l0,22.31l-33.2,19.84
	l-53.98-32.26l0-24.96c0.45-0.03,0.89-0.14,1.24-0.35c0.82-0.49,0.82-1.28,0-1.76c-0.82-0.49-2.14-0.49-2.95,0
	c-0.82,0.49-0.82,1.28,0,1.76c0.35,0.21,0.79,0.32,1.24,0.35l0,25.24l0.12,0.07l32.47,19.4l-23.66,0l-19.13-11.43
	c0.59-0.49,0.53-1.17-0.21-1.61c-0.82-0.49-2.14-0.49-2.95,0c-0.82,0.49-0.82,1.28,0,1.77c0.74,0.44,1.88,0.48,2.7,0.13l19.47,11.64
	l24.59,0v-0.01l26.71,15.96l0,28.34l-56.64,33.85l-7.59-4.54l40.08-23.95c0.82,0.35,1.96,0.31,2.7-0.13c0.82-0.49,0.82-1.28,0-1.77
	c-0.82-0.49-2.14-0.49-2.95,0c-0.74,0.44-0.8,1.12-0.21,1.61l-40.08,23.95l-7.33-4.38L504.27,217l13.03,0
	c0.08,0.23,0.27,0.46,0.57,0.64c0.82,0.49,2.14,0.49,2.95,0c0.82-0.49,0.82-1.28,0-1.77c-0.82-0.49-2.14-0.49-2.95,0
	c-0.3,0.18-0.49,0.41-0.57,0.64l-13.16,0l-0.05,0.03l-48.23,28.82l-2.96-1.77l-0.12,0.07l-2.16,1.29l-11.49-6.86l0-9.55l9.49-5.67
	v0.03l14.89,0l16.4-9.8c0.82,0.35,1.96,0.31,2.7-0.13c0.82-0.49,0.82-1.28,0-1.76c-0.82-0.49-2.14-0.49-2.95,0
	c-0.74,0.44-0.8,1.12-0.21,1.61l-16.05,9.59l-14,0l27.9-16.67c0.82,0.38,2,0.35,2.75-0.1c0.82-0.49,0.82-1.28,0-1.76
	c-0.82-0.49-2.14-0.49-2.95,0c-0.72,0.43-0.8,1.09-0.26,1.58l-34.8,20.8v-4.6l20.7-12.37v-8.74l16.86-10.07
	c0.82,0.35,1.96,0.31,2.7-0.13c0.82-0.49,0.82-1.28,0-1.76c-0.82-0.49-2.14-0.49-2.95,0c-0.74,0.44-0.8,1.12-0.21,1.61l-16.86,10.07
	V209l-20.7,12.37v5.16l-2.9,1.73l0,10.11l11.49,6.86l-7.55,4.51l-23.64-14.13l0-16.06l16.05-9.59c0.82,0.38,2,0.35,2.75-0.1
	c0.82-0.49,0.82-1.28,0-1.77c-0.82-0.49-2.14-0.49-2.95,0c-0.72,0.43-0.8,1.09-0.26,1.58l-15.59,9.32l0-12.97l12.32-7.36l0-24.4
	c0.45-0.03,0.89-0.14,1.24-0.35c0.82-0.49,0.82-1.28,0-1.77c-0.82-0.49-2.14-0.49-2.95,0c-0.82,0.49-0.82,1.28,0,1.77
	c0.35,0.21,0.79,0.32,1.24,0.35l0,24.12l-11.85,7.08l0-43.03h-0.47l0,73.46l23.64,14.13l-8.48,5.07l-30.89-18.46l0-43.97
	l-14.85-8.88l0-16.54l-13.11-7.84c0.59-0.49,0.53-1.17-0.21-1.61c-0.82-0.49-2.14-0.49-2.95,0c-0.82,0.49-0.82,1.28,0,1.77
	c0.74,0.44,1.88,0.48,2.7,0.13l13.11,7.84l0,16.54l14.85,8.88l0,43.97l30.89,18.46l-6.28,3.75l-41.69-24.92l0-37.52l-0.12-0.07
	l-36.91-22.06c0.59-0.49,0.53-1.17-0.21-1.61c-0.82-0.49-2.14-0.49-2.95,0c-0.82,0.49-0.82,1.28,0,1.77
	c0.74,0.44,1.88,0.48,2.7,0.13l37.02,22.13l0,37.52l0.12,0.07l41.58,24.85l-10.18,6.08l-69.37-41.46v-18.67l-0.12-0.07L288.7,170.6
	c0.59-0.49,0.53-1.17-0.21-1.61c-0.82-0.49-2.14-0.49-2.95,0c-0.82,0.49-0.82,1.28,0,1.76c0.74,0.44,1.88,0.48,2.7,0.13l58.19,34.78
	v18.67l0.12,0.07l38.9,23.25l-30.86,0l-35.72-21.35c0.59-0.49,0.53-1.17-0.21-1.61c-0.82-0.49-2.14-0.49-2.95,0
	c-0.82,0.49-0.82,1.28,0,1.76c0.74,0.44,1.88,0.48,2.7,0.13l36.06,21.55l31.79,0l29.54,17.65l-11.83,7.07l-25.39-15.18h-40.77
	l-46.37-27.71l-25.73,0l-10.49-6.27c0.59-0.49,0.53-1.17-0.21-1.61c-0.82-0.49-2.14-0.49-2.95,0c-0.82,0.49-0.82,1.28,0,1.77
	c0.74,0.44,1.88,0.48,2.7,0.13l10.83,6.47l25.73,0l35.04,20.94h-30.27l-14.58-8.71c0.59-0.49,0.53-1.17-0.21-1.61
	c-0.82-0.49-2.14-0.49-2.95,0c-0.82,0.49-0.82,1.28,0,1.77c0.74,0.44,1.88,0.48,2.7,0.13l14.92,8.92h31.2l10.52,6.29h40.77
	l7.11,4.25h-17.33l-0.05,0.03l-8.69,5.2l-36.23,0l-10.22-6.11h-20.49c-0.08-0.23-0.27-0.46-0.57-0.64c-0.82-0.49-2.14-0.49-2.95,0
	c-0.82,0.49-0.82,1.28,0,1.76s2.14,0.49,2.95,0c0.3-0.18,0.49-0.41,0.57-0.64h20.37l10.22,6.11l35.54,0l-9.79,5.85
	c-0.82-0.35-1.96-0.31-2.7,0.13c-0.82,0.49-0.82,1.28,0,1.76c0.82,0.49,2.14,0.49,2.95,0c0.74-0.44,0.8-1.12,0.21-1.61l19-11.36
	h18.02l17.13,10.24l-6.33,3.78l0.35,0.21l3.72,2.23l-11.84,0l-15.48-9.25c0.59-0.49,0.52-1.17-0.21-1.61
	c-0.82-0.49-2.14-0.49-2.95,0c-0.82,0.49-0.82,1.28,0,1.76c0.74,0.44,1.88,0.48,2.7,0.13l15.83,9.46l12.78,0l8.67,5.18l-5.33,3.18
	h-9.45l-0.05,0.03l-8.26,4.93h-6.2l-14.01-8.37c0.63-0.49,0.58-1.19-0.17-1.64c-0.82-0.49-2.14-0.49-2.95,0
	c-0.82,0.49-0.82,1.28,0,1.76c0.72,0.43,1.84,0.48,2.65,0.15l14.36,8.58h6.45l0.05-0.03l8.26-4.93h8.52l-17.04,10.18h-9.2
	l-19.17-11.46h-57.82l-35.87-21.43c0.62-0.49,0.57-1.19-0.18-1.63c-0.82-0.49-2.14-0.49-2.95,0c-0.82,0.49-0.82,1.28,0,1.76
	c0.72,0.43,1.85,0.48,2.66,0.14l36.21,21.64h57.82l19.17,11.46h9.45l0.05-0.03l23.46-14.02l6.15,3.68l-26.51,15.85h-18.7
	l-15.43-9.22l-39.59,0c-0.08-0.23-0.27-0.46-0.57-0.64c-0.82-0.49-2.14-0.49-2.95,0c-0.82,0.49-0.82,1.28,0,1.76
	c0.82,0.49,2.14,0.49,2.95,0c0.3-0.18,0.49-0.41,0.57-0.64l39.47,0l14.62,8.74h-55.79l-0.05,0.03l-53.17,31.78
	c-0.82-0.35-1.96-0.31-2.7,0.13c-0.82,0.49-0.82,1.28,0,1.77c0.82,0.49,2.14,0.49,2.95,0c0.74-0.44,0.8-1.12,0.21-1.61l52.88-31.6
	h75.43l0.05-0.03l26.8-16.02l6.99,4.18l-36.97,22.1h-65.1l-0.05,0.03l-57.01,34.07l-66.42,0l-38.74-23.15
	c0.59-0.49,0.52-1.17-0.21-1.61c-0.82-0.49-2.14-0.49-2.95,0c-0.82,0.49-0.82,1.28,0,1.77c0.74,0.44,1.88,0.48,2.7,0.13l39.08,23.35
	l66.67,0l0.05-0.03l57-34.07h47.42l-69.63,41.61l0,10.95l-27.78,16.6c-0.82-0.35-1.96-0.31-2.7,0.13c-0.82,0.49-0.82,1.28,0,1.77
	c0.82,0.49,2.14,0.49,2.95,0c0.74-0.44,0.8-1.12,0.21-1.61l27.77-16.6l0-10.95l70.1-41.89h16.28l-35.05,20.95v4.62l-16.77,10.02
	c-0.82-0.35-1.96-0.31-2.7,0.13c-0.82,0.49-0.82,1.28,0,1.76c0.82,0.49,2.14,0.49,2.95,0c0.74-0.44,0.8-1.12,0.21-1.61l9.13-5.46
	v12.65l-52.76,31.53c-0.82-0.35-1.96-0.31-2.7,0.13c-0.82,0.49-0.82,1.28,0,1.77c0.82,0.49,2.14,0.49,2.95,0
	c0.74-0.44,0.8-1.12,0.21-1.61l52.76-31.53v-13.21l7.17-4.29v-4.62l35.34-21.12l-0.12-0.21l37.14-22.2l6.75,4.03l-38.15,22.8
	l0,37.52L323.68,400h0.94l58.1-34.72l0,33.93l-1.32,0.79h0.94l0.86-0.51l0-34.49l11.14-6.66l0-37.52l38.15-22.8l5.94,3.55
	L409,319.16l0,20.57l0.12,0.07l33.45,19.99l0,6.97l-18.92,11.31c-0.82-0.35-1.96-0.31-2.7,0.13c-0.82,0.49-0.82,1.28,0,1.76
	c0.82,0.49,2.14,0.49,2.95,0c0.74-0.44,0.8-1.12,0.21-1.61l18.92-11.31l0-7.53l-0.12-0.07l-33.45-19.99l0-20.01l22.23-13.28l0,8.57
	l-10.19,6.09c-0.82-0.35-1.96-0.31-2.7,0.13c-0.82,0.49-0.82,1.28,0,1.77c0.82,0.49,2.14,0.49,2.95,0c0.74-0.44,0.8-1.12,0.21-1.61
	l10.19-6.09l0-9.13l6.72-4.02l7.95,4.75l0,14.92l-15,8.96v10.32l0.12,0.07l31.57,18.87c-0.59,0.49-0.52,1.17,0.21,1.61
	c0.82,0.49,2.14,0.49,2.95,0c0.82-0.49,0.82-1.28,0-1.76c-0.74-0.44-1.88-0.48-2.7-0.13l-31.69-18.94v-9.76l14.53-8.68l0,10.28
	l19.43,11.61c-0.59,0.49-0.52,1.17,0.21,1.61c0.82,0.49,2.14,0.49,2.95,0c0.82-0.49,0.82-1.28,0-1.76c-0.74-0.44-1.88-0.48-2.7-0.13
	l-19.43-11.61l0-25.21l5.58,3.34l0.12-0.07l9.08-5.43l8.33,4.98l0,12.1l22.15,13.24l0,11.41c-0.45,0.03-0.89,0.14-1.24,0.35
	c-0.82,0.49-0.82,1.28,0,1.77c0.82,0.49,2.14,0.49,2.95,0c0.82-0.49,0.82-1.28,0-1.77c-0.35-0.21-0.79-0.32-1.24-0.35l0-11.69
	l-22.15-13.24l0-11.54l35.86,21.43l0,22.71l-19.45,11.62h-17.85l-0.05,0.03l-30.62,18.3c-0.82-0.35-1.96-0.31-2.7,0.13
	c-0.82,0.49-0.82,1.28,0,1.77c0.82,0.49,2.14,0.49,2.95,0c0.74-0.44,0.8-1.12,0.21-1.61l30.33-18.13h16.91l-56.26,33.62
	c-0.82-0.35-1.96-0.31-2.7,0.13c-0.01,0.01-0.02,0.01-0.03,0.02h3.42l76.29-45.59l0-23.27l-0.12-0.07l-44.54-26.62l8.96-5.36
	l76.05,45.45l0,27.12l25.98,15.53c-0.59,0.49-0.52,1.17,0.21,1.61c0.82,0.49,2.14,0.49,2.95,0c0.82-0.49,0.82-1.28,0-1.77
	c-0.74-0.44-1.88-0.48-2.7-0.13l-25.98-15.53l0-27.12l-0.12-0.07l-75.93-45.38l8.53-5.1l75.2,44.94h44.85l2.1,1.26v-0.56l-1.98-1.18
	h-44.85l-63.48-37.94h12.77l21.67,12.95l16.69,0l0.05-0.03l23.15-13.83c0.82,0.35,1.96,0.31,2.7-0.13c0.82-0.49,0.82-1.28,0-1.77
	c-0.82-0.49-2.14-0.49-2.95,0c-0.74,0.44-0.8,1.12-0.21,1.61l-22.86,13.66l-16.44,0l-21.67-12.95h-13.7L481,293.43l22.78-13.61
	l6.48,3.87l0,10.16l16.46,9.83c-0.59,0.49-0.52,1.17,0.21,1.61c0.82,0.49,2.14,0.49,2.95,0c0.82-0.49,0.82-1.28,0-1.76
	c-0.74-0.44-1.88-0.48-2.7-0.13l-16.46-9.83l0-9.6l17.55,10.49h8.31l0.05-0.03l9.91-5.92c0.82,0.35,1.96,0.31,2.7-0.13
	c0.82-0.49,0.82-1.28,0-1.76c-0.82-0.49-2.14-0.49-2.95,0c-0.74,0.44-0.8,1.12-0.21,1.61l-9.62,5.75h-8.06l-24.15-14.43l4.39-2.62
	l-0.35-0.21l-13.65-8.16l6.56-3.92h9.91l7.09,4.24c-0.57,0.49-0.49,1.16,0.24,1.59c0.82,0.49,2.14,0.49,2.95,0
	c0.82-0.49,0.82-1.28,0-1.76c-0.75-0.45-1.91-0.48-2.73-0.11l-7.43-4.44H502l16.72-9.99l39.34,23.51h28.31l0.05-0.03l15.94-9.53
	c0.1,0.04,0.22,0.06,0.33,0.1v-2.23c-0.21,0.06-0.41,0.14-0.59,0.24c-0.74,0.44-0.8,1.12-0.21,1.61l-15.65,9.35h-28.06l-30.34-18.13
	l12.99,0l12.69,7.59c-0.59,0.49-0.53,1.17,0.21,1.61c0.82,0.49,2.14,0.49,2.95,0c0.82-0.49,0.82-1.28,0-1.76
	c-0.74-0.44-1.88-0.48-2.7-0.13l-13.04-7.79l-13.92,0l-7.85-4.69l19.97-11.94l63.53,0v-0.48l-62.72,0l7.92-4.73l47.25,0l0.05-0.03
	l7.49-4.48v-0.56l-7.67,4.58l-47.25,0l-0.05,0.03l-53.55,32l-5.94-3.55l56.3-33.64l41.17,0l0.05-0.03l16.95-10.13v-0.56
	l-17.13,10.23l-41.17,0l-0.05,0.03l-56.59,33.82L481,260.4l109.8-65.62l0-23.8l11.89-7.11V163.31z M507.7,276.91l-54.8,32.75
	l-54.8-32.75l54.8-32.75L507.7,276.91z"/>
<g>
	<g class="st4">
		<polygon class="st0" points="437.98,340.62 335.81,279.57 437.98,218.51 540.15,279.57 		"/>
	</g>
	<g>
		<path class="st5" d="M437.98,340.85c-0.04,0-0.08-0.01-0.11-0.03L335.7,279.76c-0.07-0.04-0.11-0.12-0.11-0.2
			c0-0.08,0.04-0.16,0.11-0.2l102.17-61.06c0.07-0.04,0.15-0.04,0.22,0l102.17,61.06c0.07,0.04,0.11,0.12,0.11,0.2
			c0,0.08-0.04,0.16-0.11,0.2l-102.17,61.06C438.05,340.84,438.02,340.85,437.98,340.85z M336.25,279.56l101.73,60.8l101.73-60.8
			l-101.73-60.8L336.25,279.56z"/>
	</g>
	<g class="st4">
		<polygon class="st0" points="437.98,331.16 351.65,279.57 437.98,227.98 524.3,279.57 		"/>
	</g>
	<g class="st6">
		<polygon class="st7" points="437.98,320.15 370.06,279.57 437.98,238.98 505.89,279.57 		"/>
	</g>
</g>
<g>
	<g>
		<g>
			<g>
				<g>
					<path class="st5" d="M477.77,292.23c-0.6,0-1.16-0.14-1.58-0.39l-64.1-38.31c-0.5-0.3-0.78-0.74-0.78-1.23
						c0-0.56,0.36-1.1,0.99-1.47l5.47-3.27c1.06-0.63,2.62-0.69,3.55-0.13l64.1,38.31c0.5,0.3,0.77,0.74,0.77,1.23
						c0,0.56-0.36,1.1-0.99,1.47l-5.47,3.27C479.18,292.05,478.48,292.23,477.77,292.23z M419.75,247.49
						c-0.61,0-1.25,0.16-1.75,0.46l-5.47,3.27c-0.49,0.29-0.77,0.69-0.77,1.08c0,0.33,0.2,0.63,0.56,0.84l64.1,38.31l0,0
						c0.77,0.46,2.22,0.4,3.11-0.13l5.47-3.27c0.49-0.29,0.77-0.69,0.77-1.08c0-0.33-0.2-0.63-0.55-0.84l-64.1-38.31
						C420.74,247.6,420.26,247.49,419.75,247.49z"/>
					<g>
						
							<linearGradient id="SVGID_3_" gradientUnits="userSpaceOnUse" x1="-5705.8516" y1="-2094.637" x2="-5634.0674" y2="-2094.637" gradientTransform="matrix(-0.866 -0.5 0 1.1547 -4445.8628 -234.0673)">
							<stop  offset="0" style="stop-color:#42E8E0"/>
							<stop  offset="0.0185" style="stop-color:#40DEDA"/>
							<stop  offset="0.1149" style="stop-color:#37ADBC"/>
							<stop  offset="0.2166" style="stop-color:#2E82A2"/>
							<stop  offset="0.3219" style="stop-color:#285E8C"/>
							<stop  offset="0.4319" style="stop-color:#22417A"/>
							<stop  offset="0.5479" style="stop-color:#1E2A6C"/>
							<stop  offset="0.6729" style="stop-color:#1A1A63"/>
							<stop  offset="0.813" style="stop-color:#19105D"/>
							<stop  offset="1" style="stop-color:#180D5B"/>
						</linearGradient>
						<path class="st8" d="M434.84,236.24l58.95,35.23c0.89,0.53,1.61-0.03,1.61-1.26V131.41c0-1.22-0.72-2.64-1.61-3.17L434.84,93
							c-0.89-0.53-1.61,0.03-1.61,1.26v138.81C433.24,234.29,433.96,235.71,434.84,236.24z"/>
						
							<linearGradient id="SVGID_4_" gradientUnits="userSpaceOnUse" x1="-5701.6768" y1="-2090.8347" x2="-5629.8926" y2="-2090.8347" gradientTransform="matrix(-0.866 -0.5 0 1.1547 -4445.8628 -234.0673)">
							<stop  offset="0" style="stop-color:#42E8E0"/>
							<stop  offset="0.0185" style="stop-color:#40DEDA"/>
							<stop  offset="0.1149" style="stop-color:#37ADBC"/>
							<stop  offset="0.2166" style="stop-color:#2E82A2"/>
							<stop  offset="0.3219" style="stop-color:#285E8C"/>
							<stop  offset="0.4319" style="stop-color:#22417A"/>
							<stop  offset="0.5479" style="stop-color:#1E2A6C"/>
							<stop  offset="0.6729" style="stop-color:#1A1A63"/>
							<stop  offset="0.813" style="stop-color:#19105D"/>
							<stop  offset="1" style="stop-color:#180D5B"/>
						</linearGradient>
						<path class="st9" d="M431.23,238.54l58.95,35.23c0.89,0.53,1.61-0.03,1.61-1.26V133.71c0-1.22-0.72-2.64-1.61-3.17
							L431.23,95.3c-0.89-0.53-1.61,0.03-1.61,1.26v138.81C429.62,236.59,430.34,238.01,431.23,238.54z"/>
						
							<linearGradient id="SVGID_5_" gradientUnits="userSpaceOnUse" x1="-5697.5015" y1="-2087.0322" x2="-5625.7178" y2="-2087.0322" gradientTransform="matrix(-0.866 -0.5 0 1.1547 -4445.8628 -234.0673)">
							<stop  offset="0" style="stop-color:#42E8E0"/>
							<stop  offset="0.0185" style="stop-color:#40DEDA"/>
							<stop  offset="0.1149" style="stop-color:#37ADBC"/>
							<stop  offset="0.2166" style="stop-color:#2E82A2"/>
							<stop  offset="0.3219" style="stop-color:#285E8C"/>
							<stop  offset="0.4319" style="stop-color:#22417A"/>
							<stop  offset="0.5479" style="stop-color:#1E2A6C"/>
							<stop  offset="0.6729" style="stop-color:#1A1A63"/>
							<stop  offset="0.813" style="stop-color:#19105D"/>
							<stop  offset="1" style="stop-color:#180D5B"/>
						</linearGradient>
						<path class="st10" d="M427.61,240.85l58.95,35.23c0.89,0.53,1.61-0.03,1.61-1.26V136.01c0-1.22-0.72-2.64-1.61-3.17
							L427.61,97.6c-0.89-0.53-1.61,0.03-1.61,1.26v138.81C426.01,238.89,426.73,240.32,427.61,240.85z"/>
						
							<linearGradient id="SVGID_6_" gradientUnits="userSpaceOnUse" x1="-4909.2773" y1="282.9344" x2="-4909.2773" y2="100.1019" gradientTransform="matrix(-1 0 0 1 -4459.5391 0)">
							<stop  offset="0" style="stop-color:#5761D7"/>
							<stop  offset="0.1779" style="stop-color:#5C66D9"/>
							<stop  offset="0.3876" style="stop-color:#6A73DF"/>
							<stop  offset="0.6134" style="stop-color:#8289E8"/>
							<stop  offset="0.849" style="stop-color:#A3A7F5"/>
							<stop  offset="1" style="stop-color:#BCBEFF"/>
						</linearGradient>
						<path class="st11" d="M415.53,104.27l6.85-4.08l0,0.01c0.28-0.15,0.63-0.14,1.01,0.09l58.95,35.23
							c0.89,0.53,1.61,1.95,1.61,3.17v138.81c0,0.67-0.22,1.14-0.57,1.34l0.01,0.01l-6.84,4.08l-0.15-7.72l-53.01-31.68
							c-0.89-0.53-1.61-1.95-1.61-3.17V107.91c-0.14,0.45-0.24,0.78-0.26,0.79C421.48,108.73,415.53,104.27,415.53,104.27z"/>
						
							<linearGradient id="SVGID_7_" gradientUnits="userSpaceOnUse" x1="-4933.1943" y1="148.8367" x2="-4933.1943" y2="135.7387" gradientTransform="matrix(-1 0 0 1 -4459.5391 0)">
							<stop  offset="0" style="stop-color:#C0BFF6"/>
							<stop  offset="0.2938" style="stop-color:#C5C4F7"/>
							<stop  offset="0.6399" style="stop-color:#D3D2F9"/>
							<stop  offset="1" style="stop-color:#E9E9FD"/>
						</linearGradient>
						<path class="st12" d="M483.91,138.19l-17.81,10.65l-2.69-1.61l19.23-11.49C483.26,136.28,483.77,137.25,483.91,138.19z"/>
						
							<linearGradient id="SVGID_8_" gradientUnits="userSpaceOnUse" x1="-5648.8779" y1="-2013.1355" x2="-5648.8779" y2="-2138.2207" gradientTransform="matrix(-0.866 -0.5 0 1.1547 -4445.8628 -234.0673)">
							<stop  offset="0" style="stop-color:#C0BFF6"/>
							<stop  offset="0.2938" style="stop-color:#C5C4F7"/>
							<stop  offset="0.6399" style="stop-color:#D3D2F9"/>
							<stop  offset="1" style="stop-color:#E9E9FD"/>
						</linearGradient>
						<path class="st13" d="M416.59,247.59l58.95,35.23c0.89,0.53,1.61-0.03,1.61-1.26V142.76c0-1.22-0.72-2.64-1.61-3.17
							l-58.95-35.23c-0.89-0.53-1.61,0.03-1.61,1.26v138.81C414.98,245.64,415.7,247.06,416.59,247.59z"/>
						<polygon class="st14" points="414.98,236.82 477.15,273.97 477.15,150.35 414.98,113.2 						"/>
						<polygon class="st14" points="414.98,236.82 477.15,273.97 477.15,150.35 414.98,113.2 						"/>
						<g class="st15">
							<polygon class="st16" points="414.98,236.28 477.15,273.43 477.15,150.91 414.98,113.76 							"/>
						</g>
						<path class="st17" d="M441.22,125.32l11.25,6.74c0.33,0.2,0.61,0.25,0.73-0.06c0.04-0.11,0.06-0.24,0.06-0.39l0,0
							c0-0.61-0.36-1.31-0.79-1.57l-11.36-6.79c-0.03-0.02-0.07-0.06-0.1-0.05c-0.36,0.1-0.42,0.18-0.42,0.73l0.05,0.16
							C440.63,124.69,440.78,125.06,441.22,125.32z"/>
						<path class="st18" d="M441,123.2c-0.04,0.11-0.06,0.24-0.06,0.39c0,0.61,0.36,1.31,0.79,1.57l11.36,6.79
							c0.04,0.02,0.07,0.03,0.1,0.05c-0.12,0.32-0.4,0.43-0.73,0.23l-11.36-6.79c-0.44-0.26-0.79-0.97-0.79-1.57
							C440.31,123.31,440.61,123.04,441,123.2z"/>
						<g>
							<path class="st19" d="M480.78,154.28l0.13-0.08c0.21-0.12,0.4-0.13,0.55-0.05l0-0.01l0.48,0.29l-0.24,0.02
								c0.04,0.12,0.07,0.26,0.07,0.42v8.04c0,0.66-0.39,1.42-0.86,1.7l-0.13,0.08c-0.06,0.04-0.12,0.06-0.18,0.08l0.12,0.27
								l-0.51-0.31l0.01,0c-0.18-0.11-0.3-0.36-0.3-0.72v-8.04C479.91,155.33,480.3,154.56,480.78,154.28z"/>
							<path class="st18" d="M481.26,164.98l0.13-0.08c0.48-0.28,0.86-1.05,0.86-1.7v-8.04c0-0.66-0.39-0.96-0.86-0.67l-0.13,0.08
								c-0.48,0.28-0.86,1.05-0.86,1.7v8.04C480.4,164.97,480.79,165.27,481.26,164.98z"/>
						</g>
						<g>
							<path class="st19" d="M480.78,166.55l0.13-0.08c0.21-0.12,0.4-0.13,0.55-0.05l0-0.01l0.48,0.29l-0.24,0.02
								c0.04,0.12,0.07,0.26,0.07,0.42v8.04c0,0.66-0.39,1.42-0.86,1.7l-0.13,0.08c-0.06,0.04-0.12,0.06-0.18,0.08l0.12,0.27
								l-0.51-0.31l0.01,0c-0.18-0.11-0.3-0.36-0.3-0.72v-8.04C479.91,167.59,480.3,166.83,480.78,166.55z"/>
							<path class="st18" d="M481.26,177.25l0.13-0.08c0.48-0.28,0.86-1.05,0.86-1.7v-8.04c0-0.66-0.39-0.96-0.86-0.67l-0.13,0.08
								c-0.48,0.28-0.86,1.05-0.86,1.7v8.04C480.4,177.23,480.79,177.54,481.26,177.25z"/>
						</g>
					</g>
				</g>
			</g>
		</g>
	</g>
</g>
<ellipse class="st20" cx="377.58" cy="232.76" rx="21.45" ry="12.82"/>
<path class="st5" d="M377.58,245.79c-5.53,0-11.07-1.26-15.28-3.78c-4.12-2.46-6.39-5.75-6.39-9.26c0-3.51,2.27-6.8,6.39-9.26
	c8.42-5.03,22.13-5.03,30.55,0c4.12,2.46,6.39,5.75,6.39,9.26s-2.27,6.8-6.39,9.26l0,0C388.65,244.53,383.11,245.79,377.58,245.79z
	 M377.58,220.17c-5.45,0-10.91,1.24-15.06,3.72c-3.98,2.38-6.17,5.53-6.17,8.87c0,3.34,2.19,6.49,6.17,8.87
	c8.3,4.96,21.81,4.96,30.12,0l0,0c3.98-2.38,6.17-5.53,6.17-8.87c0-3.34-2.19-6.49-6.17-8.87
	C388.48,221.41,383.03,220.17,377.58,220.17z M392.75,241.82L392.75,241.82L392.75,241.82z"/>
<g>
	<g>
		<path class="st21" d="M370.7,221.61c0,0-0.48,0.52-0.98,1.13c-0.5,0.61-1.9,1.46-2.49,1.84c-0.59,0.38-3.29,2.5-3.86,4.59
			c-0.56,2.09,1.37,2.36,3.34,2c1.98-0.36,3.82-2.25,4.36-2.93c0.54-0.68,2.41-2.23,4.83-3.53c2.42-1.3,0.96-3.05,0.96-3.05
			L370.7,221.61z"/>
		<path class="st21" d="M388.7,227.82c0,0,0.4,0.94,0.51,2.15c0.11,1.21,0.28,3.83,0.34,4.59c0.06,0.77,0.08,2.64-1.22,4.43
			c-1.3,1.79-1.98,2.5-3.71,1.8c-1.73-0.71-1.69-3.71-1.39-5.26c0.31-1.55,0.59-5.01,0.56-5.37c-0.03-0.36,0.1-0.6,0.1-0.6
			L388.7,227.82z"/>
		<path class="st14" d="M364.73,186.14c0,0,0.36,13.79,3.47,21.11c0,0,2.22,6.45,2.52,14.11c0,0-0.51,1.32,0.21,2.39
			c0.73,1.07,5.29,2.06,6.04-1.47c0.75-3.53,0.46-10.12-0.36-12.88c-0.83-2.75,0.29-10.33,0.29-10.33s1.25,0.82,2.88,6.27
			c1.63,5.45,2.83,7.53,3.4,9.03c0.56,1.5,1.08,10.74,0.72,15.25c0,0,3.69,0.54,4.76-1.28c1.07-1.83,1.42-11.27,1.15-14.29
			c-0.27-3.01-1.49-12.66-1.32-15.65c0.17-2.99,0.77-5.41,0.11-8.39c-0.66-2.98-20.14-9.61-20.14-9.61L364.73,186.14z"/>
		<path class="st21" d="M388.49,198.41c0.17-2.99,0.77-5.41,0.11-8.39c-0.25-1.12-3.16-2.76-6.69-4.36
			c-5.96-0.56-13.52-1.22-14.04-1.13c-0.47,0.07-1.7,0.56-2.72,0.98l-0.42,0.64c0,0,0.02,0.84,0.1,2.21
			c1.39,0.43,4.06-0.01,4.06-0.01c0.38,0.97,2.7,4.41,5.59,5.89c2.89,1.48,11.34,0.97,11.83,1.54c0.49,0.56,0.58,8.11,0.53,9.07
			c-0.05,0.96,0.8,7,1.58,12.35c0.77,5.26-0.4,11.65-0.44,11.85c0.27-0.18,0.51-0.4,0.68-0.69c1.07-1.83,1.42-11.27,1.15-14.29
			C389.54,211.04,388.32,201.39,388.49,198.41z"/>
		<path class="st16" d="M371.25,141.03c0,0-4.32,1.02-5.77,1.37c-0.24,0.06-0.44,0.23-0.53,0.47c-0.42,1.1-1.47,4.52-0.68,9.51
			c0.97,6.13,0.67,10.26,0.67,10.26l-2,10.77c0,0-2.51,10.26-2.3,10.54c0.22,0.28,5.79,4.67,7.53,4.05
			c1.74-0.62,1.17-1.64,1.17-1.64s1.41,7.43,7.65,7.36c6.24-0.07,11.34-0.05,12.4-2.66c1.06-2.61-0.29-13.59-1.39-17.93
			c-1.1-4.35-3.72-13.01-3.72-13.01l9.14-10.47l-7.81-6.18c0,0-1.87-3.59-2.63-4.05c-0.77-0.46-1.17-0.07-1.17-0.07L371.25,141.03z"
			/>
		<g>
			
				<linearGradient id="SVGID_9_" gradientUnits="userSpaceOnUse" x1="-7515.5498" y1="675.9551" x2="-7507.2314" y2="675.9551" gradientTransform="matrix(0.9983 0.0579 -0.0579 0.9983 7902.627 -53.7775)">
				<stop  offset="0" style="stop-color:#5761D7"/>
				<stop  offset="0.0726" style="stop-color:#5472D8"/>
				<stop  offset="0.2791" style="stop-color:#4E9CDB"/>
				<stop  offset="0.4801" style="stop-color:#49BDDD"/>
				<stop  offset="0.6715" style="stop-color:#45D5DF"/>
				<stop  offset="0.8493" style="stop-color:#43E3E0"/>
				<stop  offset="1" style="stop-color:#42E8E0"/>
			</linearGradient>
			<path class="st22" d="M368.27,185.63c0.01,0.37-0.2,0.93-1.33,1.33c-1.21,0.43-4.18-1.44-6.13-2.84
				c0.97,0.84,5.76,4.45,7.35,3.89c0.35-0.12,0.6-0.26,0.78-0.4C368.59,186.77,368.38,186.05,368.27,185.63z"/>
			
				<linearGradient id="SVGID_10_" gradientUnits="userSpaceOnUse" x1="-7503.7847" y1="678.7831" x2="-7486.4014" y2="678.7831" gradientTransform="matrix(0.9983 0.0579 -0.0579 0.9983 7902.627 -53.7775)">
				<stop  offset="0" style="stop-color:#5761D7"/>
				<stop  offset="0.0726" style="stop-color:#5472D8"/>
				<stop  offset="0.2791" style="stop-color:#4E9CDB"/>
				<stop  offset="0.4801" style="stop-color:#49BDDD"/>
				<stop  offset="0.6715" style="stop-color:#45D5DF"/>
				<stop  offset="0.8493" style="stop-color:#43E3E0"/>
				<stop  offset="1" style="stop-color:#42E8E0"/>
			</linearGradient>
			<path class="st23" d="M389.34,190.19c-1.12,2.76-6.5,2.73-13.08,2.81c-1.68,0.02-3.02-0.48-4.09-1.22
				c1.14,1.12,2.7,1.97,4.83,1.95c6.24-0.07,11.34-0.05,12.4-2.66c0.35-0.86,0.43-2.62,0.36-4.75
				C389.76,188.04,389.64,189.44,389.34,190.19z"/>
		</g>
		<path class="st24" d="M382.8,139.33c0,0,1.6,2-0.7,4.7c-1.41,1.66-3.84,5.24-5.92,8.96c-1.29,2.32-2.49,3.56-3.17,5.56
			c0,0-0.09-2.37-0.19-6.03c-0.09-3.45-0.13-7.04,0.02-7.95C373.16,142.7,381.04,138.42,382.8,139.33z"/>
		<path class="st25" d="M376.83,145.34c0,0-0.82,0.53-1.1,0.48c-0.28-0.04-1.19-0.95-1.19-0.95s-2.27-0.04-2.51-1.05
			c-0.25-1-0.41-2.02-0.64-2.54c-0.23-0.52-1.21-3.03-1.21-4.05c-0.01-1.02,0.03-2.83-0.39-3.8c-0.42-0.96-1-10.59,7.98-10.31
			c8.98,0.27,6.19,9.92,6.19,9.92s0.66,0.29,0.26,1.53c-0.4,1.24-0.49,1.37-0.69,1.99c-0.2,0.62-0.3,1.01-0.87,1.51l-0.15,1.14
			c0,0,0.43,1.75-0.69,3.45C380.7,144.37,376.83,145.34,376.83,145.34z"/>
		<path class="st26" d="M365.23,142.52c0,0-0.96,0.15-4.06,8.24c-1.73,4.51-4.41,9.19-4.98,12.54c-0.57,3.35-0.25,6.94,0.39,7.19
			c0.62,0.24,11.78,4.57,15.27,5.93c0.19,0.08,0.4-0.05,0.44-0.26l0.96-5.58l-6.93-2.77c0,0-1.32-1.67-2.56-2.29
			c0,0,1.39-2.65,1.3-3.37c-0.09-0.72,0.12-8.2-0.69-11.25C363.57,147.85,365.23,142.52,365.23,142.52z"/>
		<path class="st25" d="M369.28,163.9c0,0-0.95-0.66-1.19-0.76c-0.24-0.09-1.51-0.55-1.75-0.66c-0.18-0.08-0.92-0.02-1.3,0.02
			c-0.13,0.01-0.25,0.09-0.32,0.22c-0.29,0.57-1.12,2.21-1.02,2.84c0,0,2.31,1.51,2.56,2.18l0.37,0.08
			C366.63,167.82,368.18,164.39,369.28,163.9z"/>
		<path class="st14" d="M387.99,173.12c-0.26-1.05-0.62-2.34-1-3.71l-14.03,6.22c0,0,4.2,5.34,11.56,5
			c2.01-0.09,3.48-0.85,4.56-1.49C388.76,176.77,388.36,174.58,387.99,173.12z"/>
		<path class="st14" d="M393.42,149.64c0,0-3.7,0.53-6.69,5.43c-2.99,4.9-5.17,10.58-5.17,10.58l-0.1,0.64
			c-0.27,1.67-1.99,2.62-3.48,1.93c-3.16-1.46-7.83-3.66-8.7-4.33c0,0-2.79,1.6-3.56,5.38c-0.61,3.01-0.45,3.02-0.45,3.02
			s12.46,6.02,17.27,5.96c4.81-0.06,10.91-16.43,11.58-19.81C394.79,155.06,395.53,150.6,393.42,149.64z"/>
		<path class="st27" d="M393.42,149.64c0,0-3.7,0.53-6.69,5.43c-2.99,4.9-5.17,10.58-5.17,10.58l-0.1,0.64
			c-0.27,1.67-1.99,2.62-3.48,1.93c-3.16-1.46-7.83-3.66-8.7-4.33c0,0-2.79,1.6-3.56,5.38c-0.61,3.01-0.45,3.02-0.45,3.02
			s12.46,6.02,17.27,5.96c4.81-0.06,10.91-16.43,11.58-19.81C394.79,155.06,395.53,150.6,393.42,149.64z"/>
		<path class="st16" d="M379.77,168.98c0,0,1.57,1.52,2.26,0.69c0.68-0.83,0.48-0.93,0.48-0.93s1.41-0.01,1.59-0.93
			c0.17-0.92,0.87-0.43,0.91-1.45c0.04-1.02-1.14-0.81-1.14-0.81L379.77,168.98z"/>
		<path class="st25" d="M377.87,168.17c0,0,0.43-0.42,0.99-0.9c0.56-0.49,1.46-2.51,1.61-2.69c0.15-0.18,2.03-1.67,2.94-1.7
			c0.91-0.03,0.23,1.02,0.02,1.17c-0.21,0.15-1.09,0.6-1.09,0.6s-0.91,0.79-1.01,0.91c-0.1,0.12,2.53-0.19,2.95,0.08
			c0.42,0.27,0.32,0.96,0.03,1.15c-0.29,0.19-0.52,0.18-0.52,0.18s0.3,0.82-0.49,1.2c-0.79,0.38-0.97,0.17-0.97,0.17
			s-0.07,1.42-1.37,1.14L377.87,168.17z"/>
		<path class="st28" d="M369.58,128.52c0,0-1.17,3.86,1.91,2.76c3.09-1.1,5.88-2.94,6.84-2.24c0.74,0.53,0.7,2.17,0.65,2.92
			c-0.02,0.26,0.04,0.51,0.19,0.72l0.91,1.38c0.1,0.16,0.16,0.34,0.18,0.52l0.07,0.96c0.02,0.24,0.2,0.43,0.44,0.45l0.21,0.01
			c0.24,0.01,0.44-0.16,0.48-0.4l0.24-1.41c0,0,0.73-1.89,2.26-1.15c0,0,1.03-1.43,0.69-4.48c-0.34-3.05-1.66-6.23-7.45-6.73
			C371.41,121.33,369.58,128.52,369.58,128.52z"/>
		<path class="st29" d="M378.43,148.74l-0.87-0.7c0,0-0.8,0.69-1.11,1.42c-0.31,0.73,0,3.05,0,3.05l-0.26,0.47l-0.32-0.61
			l-0.27-2.74c0,0,0.29-2.03,0.32-2.08c0.03-0.05,1.67,0.18,1.67,0.18S378.15,148.18,378.43,148.74z"/>
		<path class="st29" d="M374.26,146.01c0,0-0.93,0.06-1.34,0.42c0,0,0.97,0.05,1.12,0.07C374.2,146.52,374.26,146.01,374.26,146.01z
			"/>
		<path class="st14" d="M376.03,146.23l1.55,1.5c0,0-1.36,0.65-1.74,1.91c0,0-1.69,0.33-1.84-0.31c-0.15-0.63,0-2.23-0.2-2.94
			C373.59,145.69,376.03,146.23,376.03,146.23z"/>
		<path class="st14" d="M374.05,149.3c0,0-0.29,1.32-0.6,1.86c-0.32,0.54-0.64,1.15-0.64,1.15l0.04,7.71c0,0,2.74-5.85,3.33-7.03
			c0,0-0.09-2.82-0.35-3.35C375.58,149.11,374.05,149.3,374.05,149.3z"/>
		<path class="st30" d="M381.41,137.9c-1.8,5.38-6.86,6.97-6.86,6.97s0.91,0.91,1.19,0.95c0.28,0.04,1.1-0.48,1.1-0.48
			s3.87-0.97,4.98-2.67c1.12-1.7,0.69-3.45,0.69-3.45l0.15-1.14C381.85,138.35,381.41,137.9,381.41,137.9z"/>
		<path class="st14" d="M385.53,144.19c0,0-0.71,2.54-0.8,2.63c-0.09,0.1-1.79-0.11-1.79-0.11l0.82,1.61c0,0-8.52,9.46-10.29,14.55
			c0,0,4.03-6.45,11.13-14.16l-1-1.57l1.74,0.35L385.53,144.19z"/>
		<path class="st14" d="M371.53,141.95l-0.45,0.53l0.53,0.51l-1.58,1.47c0,0-0.48,10.35,1.44,17.21c0,0-2.61-6.29-2.02-17.49
			l1.71-1.2l-0.56-0.57L371.53,141.95z"/>
		<path class="st21" d="M376.9,199.07c0,0,0.02,0.01,0.06,0.05l-2.21-2.43c1.02,1.49-0.15,8.3-0.28,9.86
			c-0.12,1.56,1.18,4.78,1.67,8.56c0.49,3.77-0.51,9.15-0.51,9.17c0.63-0.38,1.13-1.01,1.34-1.99c0.75-3.53,0.46-10.12-0.36-12.88
			C375.78,206.66,376.9,199.07,376.9,199.07z"/>
		
			<linearGradient id="SVGID_11_" gradientUnits="userSpaceOnUse" x1="-7511.814" y1="655.9719" x2="-7483.563" y2="655.9719" gradientTransform="matrix(0.9983 0.0579 -0.0579 0.9983 7902.627 -53.7775)">
			<stop  offset="0" style="stop-color:#5761D7"/>
			<stop  offset="0.0726" style="stop-color:#5472D8"/>
			<stop  offset="0.2791" style="stop-color:#4E9CDB"/>
			<stop  offset="0.4801" style="stop-color:#49BDDD"/>
			<stop  offset="0.6715" style="stop-color:#45D5DF"/>
			<stop  offset="0.8493" style="stop-color:#43E3E0"/>
			<stop  offset="1" style="stop-color:#42E8E0"/>
		</linearGradient>
		<path class="st31" d="M382.54,178.25c4.81-0.06,10.91-16.43,11.58-19.81c0.11-0.56,0.23-1.16,0.33-1.76
			c-0.02,0.05-1.26,3.58-2.47,6.72c-1.21,3.16-7.64,12.72-10.92,13.34c-2.96,0.56-13.62-4.59-15.68-5.6
			c-0.19,1.15-0.11,1.16-0.11,1.16S377.73,178.31,382.54,178.25z"/>
		<path class="st32" d="M380.98,136c0.24,0.01,0.44-0.16,0.48-0.4l0.24-1.41c0,0,0.73-1.89,2.26-1.15c0,0,0.97-1.36,0.71-4.24
			c-1.71,2.65-5.49,3.88-5.49,3.88l0.91,1.38c0.1,0.16,0.16,0.34,0.18,0.52l0.07,0.96c0.02,0.24,0.2,0.43,0.44,0.45L380.98,136z"/>
	</g>
</g>
<g>
	<g>
		<path class="st5" d="M430.45,311.66c-0.37,0-0.73-0.08-1-0.24l-46.94-28.05c-0.3-0.18-0.46-0.44-0.46-0.72
			c0-0.33,0.22-0.65,0.61-0.89l9.76-5.83c0.67-0.4,1.66-0.44,2.25-0.09l46.94,28.05c0.3,0.18,0.46,0.44,0.46,0.72
			c0,0.33-0.22,0.65-0.61,0.89l-9.76,5.83C431.35,311.55,430.89,311.66,430.45,311.66z M393.68,276.05c-0.36,0-0.75,0.09-1.04,0.27
			l-9.76,5.83c-0.24,0.15-0.39,0.33-0.39,0.49c0,0.15,0.13,0.26,0.24,0.33l46.94,28.05l0,0c0.45,0.27,1.28,0.23,1.81-0.09l9.76-5.83
			c0.24-0.15,0.39-0.33,0.39-0.49c0-0.15-0.13-0.26-0.24-0.33l-46.94-28.05C394.25,276.11,393.97,276.05,393.68,276.05z"/>
		<g>
			
				<linearGradient id="SVGID_12_" gradientUnits="userSpaceOnUse" x1="-5821.8232" y1="-2616.6042" x2="-5765.5342" y2="-2616.6042" gradientTransform="matrix(-0.866 -0.5 0 1.1547 -4599.3291 399.0382)">
				<stop  offset="0" style="stop-color:#5761D7"/>
				<stop  offset="0.1779" style="stop-color:#5C66D9"/>
				<stop  offset="0.3876" style="stop-color:#6A73DF"/>
				<stop  offset="0.6134" style="stop-color:#8289E8"/>
				<stop  offset="0.849" style="stop-color:#A3A7F5"/>
				<stop  offset="1" style="stop-color:#BCBEFF"/>
			</linearGradient>
			<path class="st33" d="M401.48,259.48c1.23,0.74,2.4,1.78,3.44,3c1.44-4.79,5.84-6.28,11.04-3.17c4.3,2.57,8.06,7.63,10.04,12.99
				c0.66,0.02,1.39,0.25,2.17,0.71c2.81,1.68,5.09,5.76,5.09,9.12c0,0.07-0.01,0.14-0.01,0.21c0.8,0.06,1.69,0.35,2.62,0.91
				c3.59,2.15,6.51,7.37,6.51,11.66c0,4.29-2.91,6.04-6.51,3.89l-34.39-20.55c-4.34-2.59-7.85-8.9-7.85-14.08
				C393.62,258.99,397.14,256.89,401.48,259.48z"/>
			
				<radialGradient id="SVGID_13_" cx="-4884.894" cy="258.2238" r="24.0053" fx="-4907.5322" fy="250.2379" gradientTransform="matrix(-0.9687 0 0 1.0027 -4300.856 14.8323)" gradientUnits="userSpaceOnUse">
				<stop  offset="0" style="stop-color:#2B237C"/>
				<stop  offset="1" style="stop-color:#180D5B"/>
			</radialGradient>
			<path class="st34" d="M401.48,259.48c0.72,0.43,1.41,0.96,2.07,1.57l3.85-2.3l0,0c2.11-1.54,5.17-1.47,8.57,0.56
				c4.3,2.57,8.06,7.63,10.04,12.99c0.66,0.02,1.39,0.25,2.17,0.71c2.81,1.68,5.09,5.76,5.09,9.12c0,0.07-0.01,0.14-0.01,0.21
				c0.8,0.06,1.69,0.35,2.62,0.91c3.59,2.15,6.51,7.37,6.51,11.66c0,2.13-0.72,3.63-1.88,4.34l0,0l-0.03,0.02c0,0,0,0-0.01,0
				l-9.42,5.66l-2.06-10.24l-27.51-16.44c-4.34-2.59-7.85-8.9-7.85-14.08C393.62,258.99,397.14,256.89,401.48,259.48z"/>
			
				<linearGradient id="SVGID_14_" gradientUnits="userSpaceOnUse" x1="-4901.9087" y1="281.3059" x2="-4845.8774" y2="281.3059" gradientTransform="matrix(-1 0 0 1 -4459.5391 0)">
				<stop  offset="0" style="stop-color:#5761D7"/>
				<stop  offset="0.1779" style="stop-color:#5C66D9"/>
				<stop  offset="0.3876" style="stop-color:#6A73DF"/>
				<stop  offset="0.6134" style="stop-color:#8289E8"/>
				<stop  offset="0.849" style="stop-color:#A3A7F5"/>
				<stop  offset="1" style="stop-color:#BCBEFF"/>
			</linearGradient>
			<path class="st35" d="M386.34,264.67l9.54-5.74l0,0c1.42-0.88,3.4-0.77,5.6,0.54c0.72,0.43,1.41,0.96,2.07,1.57l3.85-2.3l0,0
				c2.11-1.54,5.17-1.47,8.57,0.56c4.3,2.57,8.06,7.63,10.04,12.99c0.66,0.02,1.39,0.25,2.17,0.71c2.81,1.68,5.09,5.76,5.09,9.12
				c0,0.07-0.01,0.14-0.01,0.21c0.8,0.06,1.69,0.35,2.62,0.91c3.59,2.15,6.51,7.37,6.51,11.66c0,2.13-0.72,3.63-1.88,4.34l0,0
				l-0.03,0.02c0,0,0,0-0.01,0l-9.42,5.66l-2.06-10.24l-27.51-16.44c-3.52-2.1-6.49-6.64-7.49-11.05L386.34,264.67z"/>
			
				<linearGradient id="SVGID_15_" gradientUnits="userSpaceOnUse" x1="-5810.9121" y1="-2606.9629" x2="-5754.623" y2="-2606.9629" gradientTransform="matrix(-0.866 -0.5 0 1.1547 -4599.3291 399.0382)">
				<stop  offset="0" style="stop-color:#C0BFF6"/>
				<stop  offset="0.2938" style="stop-color:#C5C4F7"/>
				<stop  offset="0.6399" style="stop-color:#D3D2F9"/>
				<stop  offset="1" style="stop-color:#E9E9FD"/>
			</linearGradient>
			<path class="st36" d="M392.03,265.16c1.23,0.74,2.4,1.78,3.44,3c1.44-4.79,5.84-6.28,11.04-3.17c4.3,2.57,8.06,7.63,10.04,12.99
				c0.66,0.02,1.39,0.25,2.17,0.71c2.81,1.68,5.09,5.76,5.09,9.12c0,0.07-0.01,0.14-0.01,0.21c0.8,0.06,1.69,0.35,2.62,0.91
				c3.59,2.15,6.51,7.37,6.51,11.66s-2.91,6.04-6.51,3.89l-34.39-20.55c-4.34-2.59-7.85-8.9-7.85-14.08
				C384.17,264.66,387.69,262.56,392.03,265.16z"/>
		</g>
	</g>
</g>
<path class="st5" d="M386.14,280.17c-0.04,0-0.08-0.01-0.11-0.03l-17.92-10.81c-0.07-0.04-0.11-0.12-0.11-0.2
	c0-0.08,0.04-0.16,0.11-0.2l41.23-24.36c0.07-0.04,0.15-0.04,0.22,0l6.68,4.03c0.11,0.06,0.14,0.2,0.08,0.31
	c-0.06,0.11-0.2,0.15-0.3,0.08l-6.57-3.97l-40.79,24.1l17.59,10.61c0.11,0.06,0.14,0.2,0.08,0.31
	C386.29,280.12,386.21,280.17,386.14,280.17z"/>
<path class="st5" d="M452.64,318.46c-0.04,0-0.08-0.01-0.11-0.03l-16.38-9.88c-0.11-0.06-0.14-0.2-0.08-0.31
	c0.06-0.11,0.19-0.15,0.3-0.08l16.27,9.81l38.67-23.05l-8.53-5.15c-0.11-0.06-0.14-0.2-0.08-0.31c0.06-0.11,0.19-0.15,0.3-0.08
	l8.86,5.34c0.07,0.04,0.11,0.12,0.11,0.2c0,0.08-0.04,0.16-0.11,0.2l-39.11,23.32C452.72,318.45,452.68,318.46,452.64,318.46z"/>
<path class="st5" d="M359.4,327.95c-0.07,0-0.14-0.04-0.18-0.11c-0.06-0.1-0.02-0.23,0.07-0.29l18.82-11.24l7.61-7l20.42-12.21
	c0.1-0.06,0.22-0.02,0.28,0.08c0.06,0.1,0.02,0.23-0.07,0.29l-20.39,12.19l-7.61,7l-18.85,11.26
	C359.47,327.94,359.44,327.95,359.4,327.95z"/>
<path class="st5" d="M356.05,329.96c-0.07,0-0.14-0.04-0.18-0.11c-0.06-0.1-0.02-0.23,0.07-0.29l1.98-1.19
	c0.1-0.06,0.22-0.03,0.28,0.08c0.06,0.1,0.02,0.23-0.07,0.29l-1.98,1.19C356.12,329.95,356.09,329.96,356.05,329.96z"/>
<path class="st5" d="M352.49,332.08c-0.07,0-0.14-0.04-0.18-0.11c-0.06-0.1-0.02-0.23,0.07-0.29l1.98-1.19
	c0.1-0.06,0.22-0.02,0.28,0.08c0.06,0.1,0.02,0.23-0.07,0.29l-1.98,1.19C352.56,332.07,352.52,332.08,352.49,332.08z"/>
<path class="st5" d="M337.15,235.26h-7.8c-0.12,0-0.22-0.1-0.22-0.23c0-0.13,0.1-0.23,0.22-0.23h7.76l6.53-2.58
	c0.03-0.01,0.05-0.02,0.08-0.02h12.42c0.12,0,0.22,0.1,0.22,0.23c0,0.13-0.1,0.23-0.22,0.23h-12.38l-6.53,2.58
	C337.2,235.25,337.17,235.26,337.15,235.26z"/>
<g>
	<polygon class="st37" points="430.49,155.44 424.45,151.83 424.45,150.45 430.49,154.06 	"/>
	<polygon class="st37" points="433.59,157.29 431.42,155.99 431.42,154.62 433.59,155.92 	"/>
	<polygon class="st37" points="435.99,158.72 434.51,157.84 434.51,156.47 435.99,157.35 	"/>
	<polygon class="st37" points="427.74,156.93 424.45,154.96 424.45,153.59 427.74,155.56 	"/>
	<polygon class="st37" points="432.7,159.89 428.67,157.48 428.67,156.11 432.7,158.52 	"/>
	<polygon class="st37" points="435.1,161.33 433.62,160.45 433.62,159.07 435.1,159.96 	"/>
	<polygon class="st37" points="437.39,162.69 435.91,161.81 435.91,160.44 437.39,161.32 	"/>
	<polygon class="st5" points="426.83,159.52 424.45,158.1 424.45,156.73 426.83,158.15 	"/>
	<polygon class="st5" points="428.57,160.56 427.76,160.08 427.76,158.7 428.57,159.19 	"/>
	<polygon class="st37" points="430.97,162 429.49,161.11 429.49,159.74 430.97,160.62 	"/>
	<polygon class="st37" points="433.24,166.49 424.45,161.24 424.45,159.87 433.24,165.12 	"/>
	<polygon class="st37" points="436.34,168.34 434.17,167.04 434.17,165.67 436.34,166.97 	"/>
	<polygon class="st37" points="426.83,165.8 424.45,164.38 424.45,163 426.83,164.43 	"/>
	<polygon class="st37" points="432.42,169.14 427.76,166.35 427.76,164.98 432.42,167.77 	"/>
	<polygon class="st37" points="434.82,170.57 433.35,169.69 433.35,168.32 434.82,169.2 	"/>
	<polygon class="st37" points="429.33,170.42 424.45,167.51 424.45,166.14 429.33,169.05 	"/>
	<polygon class="st5" points="433.77,173.08 430.25,170.98 430.25,169.6 433.77,171.71 	"/>
	<polygon class="st37" points="437.08,175.06 434.7,173.63 434.7,172.26 437.08,173.68 	"/>
	<polygon class="st37" points="426.1,171.63 424.45,170.65 424.45,169.28 426.1,170.26 	"/>
	<polygon class="st37" points="429.2,173.48 427.02,172.18 427.02,170.81 429.2,172.11 	"/>
	<polygon class="st37" points="433.62,176.13 430.12,174.04 430.12,172.66 433.62,174.76 	"/>
	<polygon class="st37" points="429.49,176.8 424.45,173.79 424.45,172.41 429.49,175.43 	"/>
	<polygon class="st37" points="435.14,180.17 430.42,177.35 430.42,175.98 435.14,178.8 	"/>
	<polygon class="st5" points="437.54,181.61 436.06,180.73 436.06,179.35 437.54,180.24 	"/>
	<polygon class="st37" points="439.85,182.99 438.37,182.1 438.37,180.73 439.85,181.61 	"/>
	<polygon class="st37" points="427.47,178.73 424.45,176.92 424.45,175.55 427.47,177.36 	"/>
	<polygon class="st5" points="440.11,161.18 444.29,163.69 444.29,162.31 440.11,159.81 	"/>
	<polygon class="st37" points="441,164.86 444.29,166.82 444.29,165.45 441,163.48 	"/>
	<polygon class="st37" points="441.91,168.54 444.29,169.96 444.29,168.59 441.91,167.16 	"/>
	<polygon class="st37" points="440.83,171.03 444.29,173.1 444.29,171.72 440.83,169.65 	"/>
	<polygon class="st37" points="441.91,174.81 444.29,176.23 444.29,174.86 441.91,173.44 	"/>
	<polygon class="st37" points="441.27,177.57 444.29,179.37 444.29,178 441.27,176.19 	"/>
	<polygon class="st37" points="442.65,181.52 444.29,182.51 444.29,181.13 442.65,180.15 	"/>
	<polygon class="st37" points="441.11,183.74 444.29,185.64 444.29,184.27 441.11,182.37 	"/>
	<polygon class="st37" points="441.27,186.98 444.29,188.78 444.29,187.41 441.27,185.6 	"/>
	<polygon class="st37" points="429.68,180.05 428.4,179.28 428.4,177.91 429.68,178.67 	"/>
	<polygon class="st37" points="433.5,182.33 430.6,180.6 430.6,179.23 433.5,180.95 	"/>
	<polygon class="st37" points="453.92,169.38 447.88,165.77 447.88,164.4 453.92,168.01 	"/>
	<polygon class="st37" points="457.02,171.24 454.84,169.94 454.84,168.56 457.02,169.86 	"/>
	<polygon class="st5" points="459.42,172.67 457.94,171.79 457.94,170.41 459.42,171.3 	"/>
	<polygon class="st37" points="451.17,170.88 447.88,168.91 447.88,167.54 451.17,169.5 	"/>
	<polygon class="st37" points="456.13,173.84 452.09,171.43 452.09,170.06 456.13,172.47 	"/>
	<polygon class="st5" points="458.53,175.28 457.05,174.39 457.05,173.02 458.53,173.9 	"/>
	<polygon class="st37" points="460.81,176.64 459.34,175.76 459.34,174.38 460.81,175.27 	"/>
	<polygon class="st37" points="450.26,173.47 447.88,172.05 447.88,170.67 450.26,172.1 	"/>
	<polygon class="st37" points="452,174.51 451.18,174.02 451.18,172.65 452,173.14 	"/>
	<polygon class="st37" points="454.4,175.94 452.92,175.06 452.92,173.69 454.4,174.57 	"/>
	<polygon class="st37" points="456.67,180.44 447.88,175.18 447.88,173.81 456.67,179.07 	"/>
	<polygon class="st37" points="459.77,182.29 457.59,180.99 457.59,179.62 459.77,180.92 	"/>
	<polygon class="st37" points="450.26,179.75 447.88,178.32 447.88,176.95 450.26,178.37 	"/>
	<polygon class="st37" points="455.85,183.09 451.18,180.3 451.18,178.92 455.85,181.71 	"/>
	<polygon class="st37" points="458.25,184.52 456.77,183.64 456.77,182.26 458.25,183.15 	"/>
	<polygon class="st5" points="452.75,184.37 447.88,181.46 447.88,180.09 452.75,183 	"/>
	<polygon class="st37" points="457.2,187.03 453.68,184.92 453.68,183.55 457.2,185.66 	"/>
	<polygon class="st37" points="460.5,189 458.12,187.58 458.12,186.21 460.5,187.63 	"/>
	<polygon class="st37" points="449.53,185.58 447.88,184.6 447.88,183.22 449.53,184.21 	"/>
	<polygon class="st37" points="452.62,187.43 450.45,186.13 450.45,184.76 452.62,186.06 	"/>
	<polygon class="st5" points="457.05,190.08 453.55,187.98 453.55,186.61 457.05,188.7 	"/>
	<polygon class="st37" points="452.92,190.75 447.88,187.73 447.88,186.36 452.92,189.37 	"/>
	<polygon class="st37" points="458.57,194.12 453.84,191.3 453.84,189.92 458.57,192.75 	"/>
	<polygon class="st37" points="460.97,195.56 459.49,194.67 459.49,193.3 460.97,194.18 	"/>
	<polygon class="st37" points="463.27,196.93 461.79,196.05 461.79,194.68 463.27,195.56 	"/>
	<polygon class="st37" points="450.9,192.68 447.88,190.87 447.88,189.5 450.9,191.3 	"/>
	<polygon class="st5" points="463.53,175.13 467.72,177.63 467.72,176.26 463.53,173.76 	"/>
	<polygon class="st37" points="464.43,178.8 467.72,180.77 467.72,179.4 464.43,177.43 	"/>
	<polygon class="st37" points="465.34,182.48 467.72,183.91 467.72,182.53 465.34,181.11 	"/>
	<polygon class="st37" points="464.26,184.97 467.72,187.04 467.72,185.67 464.26,183.6 	"/>
	<polygon class="st37" points="465.34,188.76 467.72,190.18 467.72,188.81 465.34,187.38 	"/>
	<polygon class="st37" points="464.7,191.51 467.72,193.32 467.72,191.94 464.7,190.14 	"/>
	<polygon class="st37" points="466.08,195.47 467.72,196.45 467.72,195.08 466.08,194.1 	"/>
	<polygon class="st37" points="464.53,197.69 467.72,199.59 467.72,198.22 464.53,196.31 	"/>
	<polygon class="st37" points="464.7,200.92 467.72,202.73 467.72,201.35 464.7,199.55 	"/>
	<polygon class="st5" points="453.11,193.99 451.82,193.23 451.82,191.85 453.11,192.62 	"/>
	<polygon class="st37" points="456.92,196.27 454.03,194.55 454.03,193.17 456.92,194.9 	"/>
	<polygon class="st37" points="430.49,183.69 424.45,180.08 424.45,178.71 430.49,182.32 	"/>
	<polygon class="st37" points="433.59,185.54 431.42,184.24 431.42,182.87 433.59,184.17 	"/>
	<polygon class="st37" points="435.99,186.98 434.51,186.09 434.51,184.72 435.99,185.6 	"/>
	<polygon class="st37" points="427.74,185.18 424.45,183.22 424.45,181.84 427.74,183.81 	"/>
	<polygon class="st37" points="432.7,188.15 428.67,185.73 428.67,184.36 432.7,186.77 	"/>
	<polygon class="st37" points="435.1,189.58 433.62,188.7 433.62,187.32 435.1,188.21 	"/>
	<polygon class="st37" points="437.39,190.95 435.91,190.06 435.91,188.69 437.39,189.57 	"/>
	<polygon class="st37" points="426.83,187.78 424.45,186.35 424.45,184.98 426.83,186.4 	"/>
	<polygon class="st37" points="428.57,188.81 427.76,188.33 427.76,186.95 428.57,187.44 	"/>
	<polygon class="st37" points="430.97,190.25 429.49,189.37 429.49,187.99 430.97,188.88 	"/>
	<polygon class="st37" points="433.24,194.74 424.45,189.49 424.45,188.12 433.24,193.37 	"/>
	<polygon class="st37" points="436.34,196.59 434.17,195.3 434.17,193.92 436.34,195.22 	"/>
	<polygon class="st37" points="426.83,194.05 424.45,192.63 424.45,191.25 426.83,192.68 	"/>
	<polygon class="st37" points="432.42,197.39 427.76,194.6 427.76,193.23 432.42,196.02 	"/>
	<polygon class="st37" points="434.82,198.83 433.35,197.94 433.35,196.57 434.82,197.45 	"/>
	<polygon class="st37" points="429.33,198.68 424.45,195.76 424.45,194.39 429.33,197.3 	"/>
	<polygon class="st37" points="433.77,201.33 430.25,199.23 430.25,197.85 433.77,199.96 	"/>
	<polygon class="st37" points="437.08,203.31 434.7,201.89 434.7,200.51 437.08,201.94 	"/>
	<polygon class="st37" points="426.1,199.88 424.45,198.9 424.45,197.53 426.1,198.51 	"/>
	<polygon class="st37" points="429.2,201.74 427.02,200.44 427.02,199.06 429.2,200.36 	"/>
	<polygon class="st37" points="433.62,204.38 430.12,202.29 430.12,200.91 433.62,203.01 	"/>
	<polygon class="st37" points="429.49,205.05 424.45,202.04 424.45,200.66 429.49,203.68 	"/>
	<polygon class="st37" points="435.14,208.43 430.42,205.6 430.42,204.23 435.14,207.05 	"/>
	<polygon class="st37" points="437.54,209.86 436.06,208.98 436.06,207.6 437.54,208.49 	"/>
	<polygon class="st37" points="439.85,211.24 438.37,210.35 438.37,208.98 439.85,209.86 	"/>
	<polygon class="st37" points="427.47,206.98 424.45,205.18 424.45,203.8 427.47,205.61 	"/>
	<polygon class="st37" points="440.11,189.43 444.29,191.94 444.29,190.56 440.11,188.06 	"/>
	<polygon class="st37" points="441,193.11 444.29,195.07 444.29,193.7 441,191.73 	"/>
	<polygon class="st37" points="441.91,196.79 444.29,198.21 444.29,196.84 441.91,195.41 	"/>
	<polygon class="st37" points="440.83,199.28 444.29,201.35 444.29,199.97 440.83,197.9 	"/>
	<polygon class="st37" points="441.91,203.06 444.29,204.49 444.29,203.11 441.91,201.69 	"/>
	<polygon class="st37" points="441.27,205.82 444.29,207.62 444.29,206.25 441.27,204.44 	"/>
	<polygon class="st37" points="442.65,209.78 444.29,210.76 444.29,209.39 442.65,208.4 	"/>
	<polygon class="st37" points="441.11,211.99 444.29,213.9 444.29,212.52 441.11,210.62 	"/>
	<polygon class="st37" points="441.27,215.23 444.29,217.03 444.29,215.66 441.27,213.85 	"/>
	<polygon class="st37" points="429.68,208.3 428.4,207.53 428.4,206.16 429.68,206.93 	"/>
	<polygon class="st37" points="433.5,210.58 430.6,208.85 430.6,207.48 433.5,209.21 	"/>
	<polygon class="st37" points="435.89,221.13 431.01,218.22 431.01,216.84 435.89,219.76 	"/>
	<polygon class="st37" points="439.23,223.13 437.31,221.98 437.31,220.61 439.23,221.76 	"/>
	<polygon class="st37" points="453.92,197.64 447.88,194.03 447.88,192.65 453.92,196.26 	"/>
	<polygon class="st37" points="457.02,199.49 454.84,198.19 454.84,196.81 457.02,198.11 	"/>
	<polygon class="st37" points="459.42,200.92 457.94,200.04 457.94,198.67 459.42,199.55 	"/>
	<polygon class="st37" points="451.17,199.13 447.88,197.16 447.88,195.79 451.17,197.76 	"/>
	<polygon class="st37" points="456.13,202.09 452.09,199.68 452.09,198.31 456.13,200.72 	"/>
	<polygon class="st37" points="458.53,203.53 457.05,202.64 457.05,201.27 458.53,202.15 	"/>
	<polygon class="st37" points="460.81,204.89 459.34,204.01 459.34,202.64 460.81,203.52 	"/>
	<polygon class="st37" points="450.26,201.72 447.88,200.3 447.88,198.93 450.26,200.35 	"/>
	<polygon class="st37" points="452,202.76 451.18,202.27 451.18,200.9 452,201.39 	"/>
	<polygon class="st37" points="454.4,204.2 452.92,203.31 452.92,201.94 454.4,202.82 	"/>
	<polygon class="st37" points="456.67,208.69 447.88,203.44 447.88,202.06 456.67,207.32 	"/>
	<polygon class="st37" points="459.77,210.54 457.59,209.24 457.59,207.87 459.77,209.17 	"/>
	<polygon class="st37" points="450.26,208 447.88,206.57 447.88,205.2 450.26,206.62 	"/>
	<polygon class="st37" points="455.85,211.34 451.18,208.55 451.18,207.18 455.85,209.96 	"/>
	<polygon class="st37" points="458.25,212.77 456.77,211.89 456.77,210.52 458.25,211.4 	"/>
	<polygon class="st37" points="452.75,212.62 447.88,209.71 447.88,208.34 452.75,211.25 	"/>
	<polygon class="st37" points="457.2,215.28 453.68,213.17 453.68,211.8 457.2,213.91 	"/>
	<polygon class="st37" points="460.5,217.26 458.12,215.83 458.12,214.46 460.5,215.88 	"/>
	<polygon class="st37" points="449.53,213.83 447.88,212.85 447.88,211.47 449.53,212.46 	"/>
	<polygon class="st37" points="452.62,215.68 450.45,214.38 450.45,213.01 452.62,214.31 	"/>
	<polygon class="st37" points="457.05,218.33 453.55,216.23 453.55,214.86 457.05,216.96 	"/>
	<polygon class="st37" points="452.92,219 447.88,215.98 447.88,214.61 452.92,217.62 	"/>
	<polygon class="st37" points="458.57,222.37 453.84,219.55 453.84,218.18 458.57,221 	"/>
	<polygon class="st37" points="460.97,223.81 459.49,222.92 459.49,221.55 460.97,222.43 	"/>
	<polygon class="st37" points="463.27,225.18 461.79,224.3 461.79,222.93 463.27,223.81 	"/>
	<polygon class="st37" points="450.9,220.93 447.88,219.12 447.88,217.75 450.9,219.55 	"/>
	<polygon class="st37" points="463.53,203.38 467.72,205.88 467.72,204.51 463.53,202.01 	"/>
	<polygon class="st37" points="464.43,207.05 467.72,209.02 467.72,207.65 464.43,205.68 	"/>
	<polygon class="st37" points="465.34,210.73 467.72,212.16 467.72,210.78 465.34,209.36 	"/>
	<polygon class="st37" points="464.26,213.22 467.72,215.29 467.72,213.92 464.26,211.85 	"/>
	<polygon class="st37" points="465.34,217.01 467.72,218.43 467.72,217.06 465.34,215.64 	"/>
	<polygon class="st37" points="464.7,219.76 467.72,221.57 467.72,220.2 464.7,218.39 	"/>
	<polygon class="st37" points="466.08,223.72 467.72,224.71 467.72,223.33 466.08,222.35 	"/>
	<polygon class="st37" points="464.53,225.94 467.72,227.84 467.72,226.47 464.53,224.56 	"/>
	<polygon class="st37" points="464.7,229.17 467.72,230.98 467.72,229.61 464.7,227.8 	"/>
	<polygon class="st37" points="453.11,222.25 451.82,221.48 451.82,220.11 453.11,220.87 	"/>
	<polygon class="st37" points="456.92,224.53 454.03,222.8 454.03,221.42 456.92,223.15 	"/>
	<polygon class="st37" points="459.31,235.08 454.43,232.16 454.43,230.79 459.31,233.7 	"/>
	<polygon class="st37" points="462.66,237.08 460.73,235.93 460.73,234.55 462.66,235.7 	"/>
	<g>
		<polygon class="st37" points="430.49,155.44 424.45,151.83 424.45,150.45 430.49,154.06 		"/>
		<polygon class="st37" points="433.59,157.29 431.42,155.99 431.42,154.62 433.59,155.92 		"/>
		<polygon class="st37" points="435.99,158.72 434.51,157.84 434.51,156.47 435.99,157.35 		"/>
		<polygon class="st37" points="427.74,156.93 424.45,154.96 424.45,153.59 427.74,155.56 		"/>
		<polygon class="st37" points="432.7,159.89 428.67,157.48 428.67,156.11 432.7,158.52 		"/>
		<polygon class="st37" points="435.1,161.33 433.62,160.45 433.62,159.07 435.1,159.96 		"/>
		<polygon class="st37" points="437.39,162.69 435.91,161.81 435.91,160.44 437.39,161.32 		"/>
		<polygon class="st5" points="426.83,159.52 424.45,158.1 424.45,156.73 426.83,158.15 		"/>
		<polygon class="st5" points="428.57,160.56 427.76,160.08 427.76,158.7 428.57,159.19 		"/>
		<polygon class="st37" points="430.97,162 429.49,161.11 429.49,159.74 430.97,160.62 		"/>
		<polygon class="st37" points="433.24,166.49 424.45,161.24 424.45,159.87 433.24,165.12 		"/>
		<polygon class="st37" points="436.34,168.34 434.17,167.04 434.17,165.67 436.34,166.97 		"/>
		<polygon class="st37" points="426.83,165.8 424.45,164.38 424.45,163 426.83,164.43 		"/>
		<polygon class="st37" points="432.42,169.14 427.76,166.35 427.76,164.98 432.42,167.77 		"/>
		<polygon class="st37" points="434.82,170.57 433.35,169.69 433.35,168.32 434.82,169.2 		"/>
		<polygon class="st37" points="429.33,170.42 424.45,167.51 424.45,166.14 429.33,169.05 		"/>
		<polygon class="st5" points="433.77,173.08 430.25,170.98 430.25,169.6 433.77,171.71 		"/>
		<polygon class="st37" points="437.08,175.06 434.7,173.63 434.7,172.26 437.08,173.68 		"/>
		<polygon class="st37" points="426.1,171.63 424.45,170.65 424.45,169.28 426.1,170.26 		"/>
		<polygon class="st37" points="429.2,173.48 427.02,172.18 427.02,170.81 429.2,172.11 		"/>
		<polygon class="st37" points="433.62,176.13 430.12,174.04 430.12,172.66 433.62,174.76 		"/>
		<polygon class="st37" points="429.49,176.8 424.45,173.79 424.45,172.41 429.49,175.43 		"/>
		<polygon class="st37" points="435.14,180.17 430.42,177.35 430.42,175.98 435.14,178.8 		"/>
		<polygon class="st5" points="437.54,181.61 436.06,180.73 436.06,179.35 437.54,180.24 		"/>
		<polygon class="st37" points="439.85,182.99 438.37,182.1 438.37,180.73 439.85,181.61 		"/>
		<polygon class="st37" points="427.47,178.73 424.45,176.92 424.45,175.55 427.47,177.36 		"/>
		<polygon class="st5" points="440.11,161.18 444.29,163.69 444.29,162.31 440.11,159.81 		"/>
		<polygon class="st37" points="441,164.86 444.29,166.82 444.29,165.45 441,163.48 		"/>
		<polygon class="st37" points="441.91,168.54 444.29,169.96 444.29,168.59 441.91,167.16 		"/>
		<polygon class="st37" points="440.83,171.03 444.29,173.1 444.29,171.72 440.83,169.65 		"/>
		<polygon class="st37" points="441.91,174.81 444.29,176.23 444.29,174.86 441.91,173.44 		"/>
		<polygon class="st37" points="441.27,177.57 444.29,179.37 444.29,178 441.27,176.19 		"/>
		<polygon class="st37" points="442.65,181.52 444.29,182.51 444.29,181.13 442.65,180.15 		"/>
		<polygon class="st37" points="441.11,183.74 444.29,185.64 444.29,184.27 441.11,182.37 		"/>
		<polygon class="st37" points="441.27,186.98 444.29,188.78 444.29,187.41 441.27,185.6 		"/>
		<polygon class="st37" points="429.68,180.05 428.4,179.28 428.4,177.91 429.68,178.67 		"/>
		<polygon class="st37" points="433.5,182.33 430.6,180.6 430.6,179.23 433.5,180.95 		"/>
		<polygon class="st37" points="453.92,169.38 447.88,165.77 447.88,164.4 453.92,168.01 		"/>
		<polygon class="st37" points="457.02,171.24 454.84,169.94 454.84,168.56 457.02,169.86 		"/>
		<polygon class="st5" points="459.42,172.67 457.94,171.79 457.94,170.41 459.42,171.3 		"/>
		<polygon class="st37" points="451.17,170.88 447.88,168.91 447.88,167.54 451.17,169.5 		"/>
		<polygon class="st37" points="456.13,173.84 452.09,171.43 452.09,170.06 456.13,172.47 		"/>
		<polygon class="st5" points="458.53,175.28 457.05,174.39 457.05,173.02 458.53,173.9 		"/>
		<polygon class="st37" points="460.81,176.64 459.34,175.76 459.34,174.38 460.81,175.27 		"/>
		<polygon class="st37" points="450.26,173.47 447.88,172.05 447.88,170.67 450.26,172.1 		"/>
		<polygon class="st37" points="452,174.51 451.18,174.02 451.18,172.65 452,173.14 		"/>
		<polygon class="st37" points="454.4,175.94 452.92,175.06 452.92,173.69 454.4,174.57 		"/>
		<polygon class="st37" points="456.67,180.44 447.88,175.18 447.88,173.81 456.67,179.07 		"/>
		<polygon class="st37" points="459.77,182.29 457.59,180.99 457.59,179.62 459.77,180.92 		"/>
		<polygon class="st37" points="450.26,179.75 447.88,178.32 447.88,176.95 450.26,178.37 		"/>
		<polygon class="st37" points="455.85,183.09 451.18,180.3 451.18,178.92 455.85,181.71 		"/>
		<polygon class="st37" points="458.25,184.52 456.77,183.64 456.77,182.26 458.25,183.15 		"/>
		<polygon class="st5" points="452.75,184.37 447.88,181.46 447.88,180.09 452.75,183 		"/>
		<polygon class="st37" points="457.2,187.03 453.68,184.92 453.68,183.55 457.2,185.66 		"/>
		<polygon class="st37" points="460.5,189 458.12,187.58 458.12,186.21 460.5,187.63 		"/>
		<polygon class="st37" points="449.53,185.58 447.88,184.6 447.88,183.22 449.53,184.21 		"/>
		<polygon class="st37" points="452.62,187.43 450.45,186.13 450.45,184.76 452.62,186.06 		"/>
		<polygon class="st5" points="457.05,190.08 453.55,187.98 453.55,186.61 457.05,188.7 		"/>
		<polygon class="st37" points="452.92,190.75 447.88,187.73 447.88,186.36 452.92,189.37 		"/>
		<polygon class="st37" points="458.57,194.12 453.84,191.3 453.84,189.92 458.57,192.75 		"/>
		<polygon class="st37" points="460.97,195.56 459.49,194.67 459.49,193.3 460.97,194.18 		"/>
		<polygon class="st37" points="463.27,196.93 461.79,196.05 461.79,194.68 463.27,195.56 		"/>
		<polygon class="st37" points="450.9,192.68 447.88,190.87 447.88,189.5 450.9,191.3 		"/>
		<polygon class="st5" points="463.53,175.13 467.72,177.63 467.72,176.26 463.53,173.76 		"/>
		<polygon class="st37" points="464.43,178.8 467.72,180.77 467.72,179.4 464.43,177.43 		"/>
		<polygon class="st37" points="465.34,182.48 467.72,183.91 467.72,182.53 465.34,181.11 		"/>
		<polygon class="st37" points="464.26,184.97 467.72,187.04 467.72,185.67 464.26,183.6 		"/>
		<polygon class="st37" points="465.34,188.76 467.72,190.18 467.72,188.81 465.34,187.38 		"/>
		<polygon class="st37" points="464.7,191.51 467.72,193.32 467.72,191.94 464.7,190.14 		"/>
		<polygon class="st37" points="466.08,195.47 467.72,196.45 467.72,195.08 466.08,194.1 		"/>
		<polygon class="st37" points="464.53,197.69 467.72,199.59 467.72,198.22 464.53,196.31 		"/>
		<polygon class="st37" points="464.7,200.92 467.72,202.73 467.72,201.35 464.7,199.55 		"/>
		<polygon class="st5" points="453.11,193.99 451.82,193.23 451.82,191.85 453.11,192.62 		"/>
		<polygon class="st37" points="456.92,196.27 454.03,194.55 454.03,193.17 456.92,194.9 		"/>
		<polygon class="st37" points="430.49,183.69 424.45,180.08 424.45,178.71 430.49,182.32 		"/>
		<polygon class="st37" points="433.59,185.54 431.42,184.24 431.42,182.87 433.59,184.17 		"/>
		<polygon class="st37" points="435.99,186.98 434.51,186.09 434.51,184.72 435.99,185.6 		"/>
		<polygon class="st37" points="427.74,185.18 424.45,183.22 424.45,181.84 427.74,183.81 		"/>
		<polygon class="st37" points="432.7,188.15 428.67,185.73 428.67,184.36 432.7,186.77 		"/>
		<polygon class="st37" points="435.1,189.58 433.62,188.7 433.62,187.32 435.1,188.21 		"/>
		<polygon class="st37" points="437.39,190.95 435.91,190.06 435.91,188.69 437.39,189.57 		"/>
		<polygon class="st37" points="426.83,187.78 424.45,186.35 424.45,184.98 426.83,186.4 		"/>
		<polygon class="st37" points="428.57,188.81 427.76,188.33 427.76,186.95 428.57,187.44 		"/>
		<polygon class="st37" points="430.97,190.25 429.49,189.37 429.49,187.99 430.97,188.88 		"/>
		<polygon class="st37" points="433.24,194.74 424.45,189.49 424.45,188.12 433.24,193.37 		"/>
		<polygon class="st37" points="436.34,196.59 434.17,195.3 434.17,193.92 436.34,195.22 		"/>
		<polygon class="st37" points="426.83,194.05 424.45,192.63 424.45,191.25 426.83,192.68 		"/>
		<polygon class="st37" points="432.42,197.39 427.76,194.6 427.76,193.23 432.42,196.02 		"/>
		<polygon class="st37" points="434.82,198.83 433.35,197.94 433.35,196.57 434.82,197.45 		"/>
		<polygon class="st37" points="429.33,198.68 424.45,195.76 424.45,194.39 429.33,197.3 		"/>
		<polygon class="st37" points="433.77,201.33 430.25,199.23 430.25,197.85 433.77,199.96 		"/>
		<polygon class="st37" points="437.08,203.31 434.7,201.89 434.7,200.51 437.08,201.94 		"/>
		<polygon class="st37" points="426.1,199.88 424.45,198.9 424.45,197.53 426.1,198.51 		"/>
		<polygon class="st37" points="429.2,201.74 427.02,200.44 427.02,199.06 429.2,200.36 		"/>
		<polygon class="st37" points="433.62,204.38 430.12,202.29 430.12,200.91 433.62,203.01 		"/>
		<polygon class="st37" points="429.49,205.05 424.45,202.04 424.45,200.66 429.49,203.68 		"/>
		<polygon class="st37" points="435.14,208.43 430.42,205.6 430.42,204.23 435.14,207.05 		"/>
		<polygon class="st37" points="437.54,209.86 436.06,208.98 436.06,207.6 437.54,208.49 		"/>
		<polygon class="st37" points="439.85,211.24 438.37,210.35 438.37,208.98 439.85,209.86 		"/>
		<polygon class="st37" points="427.47,206.98 424.45,205.18 424.45,203.8 427.47,205.61 		"/>
		<polygon class="st37" points="440.11,189.43 444.29,191.94 444.29,190.56 440.11,188.06 		"/>
		<polygon class="st37" points="441,193.11 444.29,195.07 444.29,193.7 441,191.73 		"/>
		<polygon class="st37" points="441.91,196.79 444.29,198.21 444.29,196.84 441.91,195.41 		"/>
		<polygon class="st37" points="440.83,199.28 444.29,201.35 444.29,199.97 440.83,197.9 		"/>
		<polygon class="st37" points="441.91,203.06 444.29,204.49 444.29,203.11 441.91,201.69 		"/>
		<polygon class="st37" points="441.27,205.82 444.29,207.62 444.29,206.25 441.27,204.44 		"/>
		<polygon class="st37" points="442.65,209.78 444.29,210.76 444.29,209.39 442.65,208.4 		"/>
		<polygon class="st37" points="441.11,211.99 444.29,213.9 444.29,212.52 441.11,210.62 		"/>
		<polygon class="st37" points="441.27,215.23 444.29,217.03 444.29,215.66 441.27,213.85 		"/>
		<polygon class="st37" points="429.68,208.3 428.4,207.53 428.4,206.16 429.68,206.93 		"/>
		<polygon class="st37" points="433.5,210.58 430.6,208.85 430.6,207.48 433.5,209.21 		"/>
		<polygon class="st37" points="435.89,221.13 431.01,218.22 431.01,216.84 435.89,219.76 		"/>
		<polygon class="st37" points="439.23,223.13 437.31,221.98 437.31,220.61 439.23,221.76 		"/>
		<polygon class="st37" points="453.92,197.64 447.88,194.03 447.88,192.65 453.92,196.26 		"/>
		<polygon class="st37" points="457.02,199.49 454.84,198.19 454.84,196.81 457.02,198.11 		"/>
		<polygon class="st37" points="459.42,200.92 457.94,200.04 457.94,198.67 459.42,199.55 		"/>
		<polygon class="st37" points="451.17,199.13 447.88,197.16 447.88,195.79 451.17,197.76 		"/>
		<polygon class="st37" points="456.13,202.09 452.09,199.68 452.09,198.31 456.13,200.72 		"/>
		<polygon class="st37" points="458.53,203.53 457.05,202.64 457.05,201.27 458.53,202.15 		"/>
		<polygon class="st37" points="460.81,204.89 459.34,204.01 459.34,202.64 460.81,203.52 		"/>
		<polygon class="st37" points="450.26,201.72 447.88,200.3 447.88,198.93 450.26,200.35 		"/>
		<polygon class="st37" points="452,202.76 451.18,202.27 451.18,200.9 452,201.39 		"/>
		<polygon class="st37" points="454.4,204.2 452.92,203.31 452.92,201.94 454.4,202.82 		"/>
		<polygon class="st37" points="456.67,208.69 447.88,203.44 447.88,202.06 456.67,207.32 		"/>
		<polygon class="st37" points="459.77,210.54 457.59,209.24 457.59,207.87 459.77,209.17 		"/>
		<polygon class="st37" points="450.26,208 447.88,206.57 447.88,205.2 450.26,206.62 		"/>
		<polygon class="st37" points="455.85,211.34 451.18,208.55 451.18,207.18 455.85,209.96 		"/>
		<polygon class="st37" points="458.25,212.77 456.77,211.89 456.77,210.52 458.25,211.4 		"/>
		<polygon class="st37" points="452.75,212.62 447.88,209.71 447.88,208.34 452.75,211.25 		"/>
		<polygon class="st37" points="457.2,215.28 453.68,213.17 453.68,211.8 457.2,213.91 		"/>
		<polygon class="st37" points="460.5,217.26 458.12,215.83 458.12,214.46 460.5,215.88 		"/>
		<polygon class="st37" points="449.53,213.83 447.88,212.85 447.88,211.47 449.53,212.46 		"/>
		<polygon class="st37" points="452.62,215.68 450.45,214.38 450.45,213.01 452.62,214.31 		"/>
		<polygon class="st37" points="457.05,218.33 453.55,216.23 453.55,214.86 457.05,216.96 		"/>
		<polygon class="st37" points="452.92,219 447.88,215.98 447.88,214.61 452.92,217.62 		"/>
		<polygon class="st37" points="458.57,222.37 453.84,219.55 453.84,218.18 458.57,221 		"/>
		<polygon class="st37" points="460.97,223.81 459.49,222.92 459.49,221.55 460.97,222.43 		"/>
		<polygon class="st37" points="463.27,225.18 461.79,224.3 461.79,222.93 463.27,223.81 		"/>
		<polygon class="st37" points="450.9,220.93 447.88,219.12 447.88,217.75 450.9,219.55 		"/>
		<polygon class="st37" points="463.53,203.38 467.72,205.88 467.72,204.51 463.53,202.01 		"/>
		<polygon class="st37" points="464.43,207.05 467.72,209.02 467.72,207.65 464.43,205.68 		"/>
		<polygon class="st37" points="465.34,210.73 467.72,212.16 467.72,210.78 465.34,209.36 		"/>
		<polygon class="st37" points="464.26,213.22 467.72,215.29 467.72,213.92 464.26,211.85 		"/>
		<polygon class="st37" points="465.34,217.01 467.72,218.43 467.72,217.06 465.34,215.64 		"/>
		<polygon class="st37" points="464.7,219.76 467.72,221.57 467.72,220.2 464.7,218.39 		"/>
		<polygon class="st37" points="466.08,223.72 467.72,224.71 467.72,223.33 466.08,222.35 		"/>
		<polygon class="st37" points="464.53,225.94 467.72,227.84 467.72,226.47 464.53,224.56 		"/>
		<polygon class="st37" points="464.7,229.17 467.72,230.98 467.72,229.61 464.7,227.8 		"/>
		<polygon class="st37" points="453.11,222.25 451.82,221.48 451.82,220.11 453.11,220.87 		"/>
		<polygon class="st37" points="456.92,224.53 454.03,222.8 454.03,221.42 456.92,223.15 		"/>
		<polygon class="st37" points="459.31,235.08 454.43,232.16 454.43,230.79 459.31,233.7 		"/>
		<polygon class="st37" points="462.66,237.08 460.73,235.93 460.73,234.55 462.66,235.7 		"/>
	</g>
</g>
<g>
	
		<linearGradient id="SVGID_16_" gradientUnits="userSpaceOnUse" x1="243.7054" y1="219.0748" x2="305.6146" y2="167.1268" gradientTransform="matrix(-1 0 0 1 762.393 0)">
		<stop  offset="0" style="stop-color:#5761D7"/>
		<stop  offset="0.1779" style="stop-color:#5C66D9"/>
		<stop  offset="0.3876" style="stop-color:#6A73DF"/>
		<stop  offset="0.6134" style="stop-color:#8289E8"/>
		<stop  offset="0.849" style="stop-color:#A3A7F5"/>
		<stop  offset="1" style="stop-color:#BCBEFF"/>
	</linearGradient>
	<path class="st38" d="M458.08,158.15l1.76-1.3v0c0.55-0.43,1.31-0.45,2.15,0.05l61.44,36.72c1.68,1,3.04,3.7,3.04,6.01v35.64
		c0,1.21-0.37,2.08-0.97,2.49l0.01,0l-1.83,1.35l-0.1-1.38c-0.05-0.03-0.1-0.05-0.15-0.08l-61.44-36.72c-1.68-1-3.04-3.7-3.04-6.01
		v-35.64c0-0.34,0.03-0.65,0.09-0.94L458.08,158.15z"/>
	
		<linearGradient id="SVGID_17_" gradientUnits="userSpaceOnUse" x1="242.9325" y1="203.5125" x2="249.4859" y2="198.0135" gradientTransform="matrix(-1 0 0 1 762.393 0)">
		<stop  offset="0" style="stop-color:#C0BFF6"/>
		<stop  offset="0.2938" style="stop-color:#C5C4F7"/>
		<stop  offset="0.6399" style="stop-color:#D3D2F9"/>
		<stop  offset="1" style="stop-color:#E9E9FD"/>
	</linearGradient>
	<path class="st39" d="M526.31,198.2l-16.22,9.69l-4.08-2.44l18.42-11.01C525.31,195.4,526.01,196.79,526.31,198.2z"/>
	
		<linearGradient id="SVGID_18_" gradientUnits="userSpaceOnUse" x1="320.4183" y1="433.9117" x2="320.4183" y2="394.697" gradientTransform="matrix(-0.866 -0.5 0 1.1547 768.3544 -119.5587)">
		<stop  offset="0" style="stop-color:#C0BFF6"/>
		<stop  offset="0.2938" style="stop-color:#C5C4F7"/>
		<stop  offset="0.6399" style="stop-color:#D3D2F9"/>
		<stop  offset="1" style="stop-color:#E9E9FD"/>
	</linearGradient>
	<path class="st40" d="M460.15,202.29l61.44,36.72c1.68,1,3.04-0.06,3.04-2.38v-35.64c0-2.32-1.36-5.01-3.04-6.01l-61.44-36.72
		c-1.68-1-3.04,0.06-3.04,2.38v35.64C457.11,198.59,458.48,201.29,460.15,202.29z"/>
	<path class="st17" d="M465.84,179.85l50.14,29.94c0.39,0.23,0.72,0.36,0.94-0.01c0.04-0.06,0.02-0.14,0.02-0.21v-7.87
		c0-0.61-0.36-1.32-0.8-1.59l-50.53-30.2c-0.04-0.02-0.08-0.06-0.12-0.06c-0.38,0.06-0.39,0.43-0.39,0.98l-0.12,7.55
		C464.97,178.99,465.4,179.58,465.84,179.85z"/>
	<path class="st17" d="M465.73,196.96l50.23,29.96c0.39,0.23,0.89,0.47,0.96,0.02c0.01-0.07,0.02-0.14,0.02-0.22v-7.87
		c0-0.61-0.36-1.32-0.8-1.59l-50.53-30.2c-0.04-0.02-0.08-0.04-0.12-0.06c-0.39-0.15-0.49,0.36-0.49,0.92l-0.03,7.46
		C464.97,196,465.29,196.7,465.73,196.96z"/>
	<path class="st41" d="M465.49,169.85c-0.01,0.07-0.02,0.14-0.02,0.21v7.87c0,0.61,0.36,1.32,0.8,1.59l50.53,30.2
		c0.04,0.02,0.08,0.04,0.12,0.05c-0.08,0.46-0.4,0.65-0.79,0.41l-50.53-30.2c-0.44-0.26-0.8-0.98-0.8-1.59v-7.87
		C464.8,169.98,465.1,169.7,465.49,169.85z"/>
	<path class="st41" d="M465.49,187.02c-0.01,0.07-0.02,0.14-0.02,0.21v7.87c0,0.61,0.36,1.32,0.8,1.59l50.53,30.2
		c0.04,0.02,0.08,0.04,0.12,0.05c-0.08,0.46-0.4,0.65-0.79,0.41l-50.53-30.2c-0.44-0.26-0.8-0.98-0.8-1.59v-7.87
		C464.8,187.14,465.1,186.86,465.49,187.02z"/>
	<g>
		<g>
			<path class="st41" d="M502.5,198.05l-0.62,1.21l-1.17-1.53l0.89-0.95l-1.34-1.41l0.44-1.17l1.21,1.53l-0.16-1.83l1.48,0.88
				l-0.16,1.63l1.21-0.08l0.45,1.68l-1.32-0.18l0.88,2.03l-1.16,0.13L502.5,198.05z"/>
		</g>
		<g>
			<path class="st41" d="M496.69,194.58l-0.62,1.21l-1.18-1.53l0.89-0.95l-1.34-1.41l0.44-1.17l1.21,1.53l-0.16-1.83l1.48,0.88
				l-0.16,1.63l1.21-0.08l0.45,1.68l-1.32-0.18l0.88,2.03l-1.16,0.13L496.69,194.58z"/>
		</g>
		<g>
			<path class="st41" d="M490.88,191.11l-0.62,1.21l-1.17-1.53l0.89-0.95l-1.34-1.41l0.44-1.17l1.21,1.53l-0.16-1.83l1.48,0.88
				l-0.16,1.63l1.21-0.08l0.45,1.68l-1.32-0.18l0.88,2.03l-1.16,0.13L490.88,191.11z"/>
		</g>
		<g>
			<path class="st41" d="M485.07,187.64l-0.62,1.21l-1.18-1.53l0.89-0.95l-1.34-1.41l0.44-1.17l1.21,1.53l-0.16-1.83l1.48,0.88
				l-0.16,1.63l1.21-0.08l0.45,1.68l-1.32-0.18l0.88,2.03l-1.16,0.13L485.07,187.64z"/>
		</g>
		<g>
			<path class="st41" d="M479.26,184.17l-0.62,1.21l-1.17-1.53l0.89-0.95l-1.34-1.41l0.44-1.17l1.21,1.53l-0.16-1.83l1.48,0.88
				l-0.16,1.63l1.21-0.08l0.45,1.68l-1.32-0.18l0.88,2.03l-1.16,0.13L479.26,184.17z"/>
		</g>
	</g>
	<g>
		<g>
			<path class="st41" d="M502.5,215.21l-0.62,1.21l-1.17-1.53l0.89-0.95l-1.34-1.41l0.44-1.17l1.21,1.53l-0.16-1.83l1.48,0.88
				l-0.16,1.63l1.21-0.08l0.45,1.68l-1.32-0.18l0.88,2.03l-1.16,0.13L502.5,215.21z"/>
		</g>
		<g>
			<path class="st41" d="M496.69,211.74l-0.62,1.21l-1.18-1.53l0.89-0.95l-1.34-1.41l0.44-1.17l1.21,1.53l-0.16-1.83l1.48,0.88
				l-0.16,1.63l1.21-0.08l0.45,1.68l-1.32-0.18l0.88,2.03l-1.16,0.13L496.69,211.74z"/>
		</g>
		<g>
			<path class="st41" d="M490.88,208.27l-0.62,1.21l-1.17-1.53l0.89-0.95l-1.34-1.41l0.44-1.17l1.21,1.53l-0.16-1.83l1.48,0.88
				l-0.16,1.63l1.21-0.08l0.45,1.68l-1.32-0.18l0.88,2.03l-1.16,0.13L490.88,208.27z"/>
		</g>
		<g>
			<path class="st41" d="M485.07,204.8l-0.62,1.21l-1.18-1.53l0.89-0.95l-1.34-1.41l0.44-1.17l1.21,1.53l-0.16-1.83l1.48,0.88
				l-0.16,1.63l1.21-0.08l0.45,1.68l-1.32-0.18l0.88,2.03l-1.16,0.13L485.07,204.8z"/>
		</g>
		<g>
			<path class="st41" d="M479.26,201.33l-0.62,1.21l-1.17-1.53l0.89-0.95l-1.34-1.41l0.44-1.17l1.21,1.53l-0.16-1.83l1.48,0.88
				l-0.16,1.63l1.21-0.08l0.45,1.68l-1.32-0.18l0.88,2.03l-1.16,0.13L479.26,201.33z"/>
		</g>
	</g>
</g>
<g>
	<g class="st42">
		<linearGradient id="SVGID_19_" gradientUnits="userSpaceOnUse" x1="495.1015" y1="331.7965" x2="538.1696" y2="356.6619">
			<stop  offset="0" style="stop-color:#BCBEFF"/>
			<stop  offset="0.2271" style="stop-color:#AAADF8"/>
			<stop  offset="0.6802" style="stop-color:#7C83E5"/>
			<stop  offset="1" style="stop-color:#5761D7"/>
		</linearGradient>
		<path class="st43" d="M544.03,345.81v-4.89l-1.31-0.75c-0.37,2.31-2.99,3.82-5.18,4.14l-14.93,9.04l-6.51,2.43l-20.79-11.11
			l0.48-0.29c-1.78-0.86-2.73-2.82-3.7-4.62l-1.4,0.86l-0.83,0.24v5.01l0,0c0,0.96,0.61,1.91,1.83,2.64l20.83,12.45
			c2.44,1.46,6.41,1.46,8.85,0l20.83-12.45c1.2-0.72,1.81-1.66,1.83-2.6C544.03,345.89,544.03,345.85,544.03,345.81L544.03,345.81z"
			/>
		<path class="st44" d="M537.54,344.31l-14.93,9.04l-5.67,2.12v6.61c1.6,0,3.2-0.36,4.42-1.09l20.83-12.45
			c1.2-0.72,1.81-1.66,1.83-2.6c0-0.04,0-0.08,0-0.13l0,0v-4.89l-1.19-0.69h-0.12C542.3,342.5,539.71,344,537.54,344.31z"/>
		<g>
			<linearGradient id="SVGID_20_" gradientUnits="userSpaceOnUse" x1="489.8608" y1="340.9206" x2="544.0276" y2="340.9206">
				<stop  offset="0" style="stop-color:#E9E9FD"/>
				<stop  offset="0.3601" style="stop-color:#D3D2F9"/>
				<stop  offset="0.7062" style="stop-color:#C5C4F7"/>
				<stop  offset="1" style="stop-color:#C0BFF6"/>
			</linearGradient>
			<path class="st45" d="M512.52,356.01l-20.83-12.45c-2.44-1.46-2.44-3.83,0-5.29l20.83-12.45c2.44-1.46,6.41-1.46,8.85,0
				l20.83,12.45c2.44,1.46,2.44,3.83,0,5.29l-20.83,12.45C518.93,357.47,514.96,357.47,512.52,356.01z"/>
		</g>
		<g class="st42">
			<path class="st0" d="M512.52,356.01l-20.83-12.45c-2.44-1.46-2.44-3.83,0-5.29l20.83-12.45c2.44-1.46,6.41-1.46,8.85,0
				l20.83,12.45c2.44,1.46,2.44,3.83,0,5.29l-20.83,12.45C518.93,357.47,514.96,357.47,512.52,356.01z"/>
		</g>
	</g>
	<g>
		<g>
			<path class="st5" d="M516.94,347.79c-1.42,0-2.84-0.32-3.93-0.97l-20.83-12.45c-1.08-0.65-1.68-1.52-1.68-2.46
				c0-0.94,0.6-1.81,1.68-2.46l20.83-12.45c2.16-1.29,5.69-1.29,7.85,0l20.83,12.45c1.08,0.65,1.68,1.52,1.68,2.46
				c0,0.94-0.6,1.81-1.68,2.46l-20.83,12.45C519.79,347.47,518.37,347.79,516.94,347.79z M516.94,316.41
				c-1.36,0-2.71,0.31-3.74,0.93l-20.83,12.45c-0.96,0.58-1.49,1.33-1.49,2.13c0,0.8,0.53,1.55,1.49,2.13l20.83,12.45
				c2.07,1.24,5.42,1.23,7.49,0l20.83-12.45c0.96-0.58,1.49-1.33,1.49-2.13c0-0.8-0.53-1.55-1.49-2.13l-20.83-12.45
				C519.66,316.72,518.3,316.41,516.94,316.41z"/>
			<g>
				<path class="st46" d="M544.03,327.14l0-7.38l-1.31-0.75c-0.37,2.31-2.99,3.82-5.18,4.14l-14.93,9.04l-6.51,2.43l-20.79-11.11
					l0.48-0.29c-1.78-0.86-2.73-2.82-3.7-4.62l-1.4,0.86l-0.83,0.24v7.51l0,0c0,0.96,0.61,1.91,1.83,2.64l20.83,12.45
					c2.44,1.46,6.41,1.46,8.85,0l20.83-12.45c1.2-0.72,1.81-1.66,1.83-2.6C544.03,327.22,544.03,327.18,544.03,327.14L544.03,327.14
					z"/>
				<g>
					<g>
						<linearGradient id="SVGID_21_" gradientUnits="userSpaceOnUse" x1="495.1015" y1="306.5658" x2="538.1696" y2="331.4312">
							<stop  offset="0" style="stop-color:#BCBEFF"/>
							<stop  offset="0.2271" style="stop-color:#AAADF8"/>
							<stop  offset="0.6802" style="stop-color:#7C83E5"/>
							<stop  offset="1" style="stop-color:#5761D7"/>
						</linearGradient>
						<path class="st47" d="M544.03,320.58l0-4.89l-1.31-0.75c-0.37,2.31-2.99,3.82-5.18,4.14l-14.93,9.04l-6.51,2.43l-20.79-11.11
							l0.48-0.29c-1.78-0.86-2.73-2.82-3.7-4.62l-1.4,0.86l-0.83,0.24v5.01l0,0c0,0.96,0.61,1.91,1.83,2.64l20.83,12.45
							c2.44,1.46,6.41,1.46,8.85,0l20.83-12.45c1.2-0.72,1.81-1.66,1.83-2.6C544.03,320.66,544.03,320.62,544.03,320.58
							L544.03,320.58z"/>
						<path class="st44" d="M537.54,319.08l-14.93,9.04l-5.67,2.12v6.61c1.6,0,3.2-0.36,4.42-1.09l20.83-12.45
							c1.2-0.72,1.81-1.66,1.83-2.6c0-0.04,0-0.08,0-0.13l0,0l0-4.89l-1.19-0.69h-0.12C542.3,317.27,539.71,318.77,537.54,319.08z"
							/>
						<g>
							<linearGradient id="SVGID_22_" gradientUnits="userSpaceOnUse" x1="489.8608" y1="315.6898" x2="544.0276" y2="315.6898">
								<stop  offset="0" style="stop-color:#E9E9FD"/>
								<stop  offset="0.3601" style="stop-color:#D3D2F9"/>
								<stop  offset="0.7062" style="stop-color:#C5C4F7"/>
								<stop  offset="1" style="stop-color:#C0BFF6"/>
							</linearGradient>
							<path class="st48" d="M512.52,330.78l-20.83-12.45c-2.44-1.46-2.44-3.83,0-5.29l20.83-12.45c2.44-1.46,6.41-1.46,8.85,0
								l20.83,12.45c2.44,1.46,2.44,3.83,0,5.29l-20.83,12.45C518.93,332.24,514.96,332.24,512.52,330.78z"/>
						</g>
						<g>
							<path class="st41" d="M542.2,318.33l-20.83,12.45c-2.44,1.46-6.41,1.46-8.85,0l-20.83-12.45c-1.09-0.65-1.69-1.49-1.81-2.34
								c-0.14,1.06,0.46,2.14,1.81,2.95l20.83,12.45c2.44,1.46,6.41,1.46,8.85,0l20.83-12.45c1.35-0.81,1.95-1.89,1.81-2.95
								C543.89,316.85,543.29,317.68,542.2,318.33z"/>
						</g>
					</g>
				</g>
			</g>
		</g>
	</g>
</g>
<g>
	<g class="st42">
		<linearGradient id="SVGID_23_" gradientUnits="userSpaceOnUse" x1="289.1873" y1="330.1678" x2="332.2554" y2="355.0331">
			<stop  offset="0" style="stop-color:#BCBEFF"/>
			<stop  offset="0.2271" style="stop-color:#AAADF8"/>
			<stop  offset="0.6802" style="stop-color:#7C83E5"/>
			<stop  offset="1" style="stop-color:#5761D7"/>
		</linearGradient>
		<path class="st49" d="M338.11,344.18v-4.89l-1.31-0.75c-0.37,2.31-2.99,3.82-5.18,4.14l-14.93,9.04l-6.51,2.43l-20.79-11.11
			l0.48-0.29c-1.78-0.86-2.73-2.82-3.7-4.62l-1.4,0.86l-0.83,0.24v5.01l0,0c0,0.96,0.61,1.91,1.83,2.64l20.83,12.45
			c2.44,1.46,6.41,1.46,8.85,0l20.83-12.45c1.2-0.72,1.81-1.66,1.83-2.6C338.11,344.26,338.11,344.22,338.11,344.18L338.11,344.18z"
			/>
		<path class="st44" d="M331.63,342.68l-14.93,9.04l-5.67,2.12v6.61c1.6,0,3.2-0.36,4.42-1.09l20.83-12.45
			c1.2-0.72,1.81-1.66,1.83-2.6c0-0.04,0-0.08,0-0.13l0,0v-4.89l-1.19-0.69h-0.12C336.39,340.87,333.8,342.37,331.63,342.68z"/>
		<g>
			<linearGradient id="SVGID_24_" gradientUnits="userSpaceOnUse" x1="283.9467" y1="339.2918" x2="338.1136" y2="339.2918">
				<stop  offset="0" style="stop-color:#E9E9FD"/>
				<stop  offset="0.3601" style="stop-color:#D3D2F9"/>
				<stop  offset="0.7062" style="stop-color:#C5C4F7"/>
				<stop  offset="1" style="stop-color:#C0BFF6"/>
			</linearGradient>
			<path class="st50" d="M306.61,354.38l-20.83-12.45c-2.44-1.46-2.44-3.83,0-5.29l20.83-12.45c2.44-1.46,6.41-1.46,8.85,0
				l20.83,12.45c2.44,1.46,2.44,3.83,0,5.29l-20.83,12.45C313.01,355.84,309.05,355.84,306.61,354.38z"/>
		</g>
		<g class="st42">
			<path class="st0" d="M306.61,354.38l-20.83-12.45c-2.44-1.46-2.44-3.83,0-5.29l20.83-12.45c2.44-1.46,6.41-1.46,8.85,0
				l20.83,12.45c2.44,1.46,2.44,3.83,0,5.29l-20.83,12.45C313.01,355.84,309.05,355.84,306.61,354.38z"/>
		</g>
	</g>
	<g>
		<g>
			<path class="st5" d="M311.03,346.16c-1.42,0-2.84-0.32-3.93-0.97l-20.83-12.45c-1.08-0.65-1.68-1.52-1.68-2.46
				c0-0.94,0.6-1.81,1.68-2.46l20.83-12.45c2.16-1.29,5.69-1.29,7.85,0l20.83,12.45c1.08,0.65,1.68,1.52,1.68,2.46
				c0,0.94-0.6,1.81-1.68,2.46l-20.83,12.45C313.87,345.84,312.45,346.16,311.03,346.16z M311.03,314.79
				c-1.36,0-2.71,0.31-3.74,0.93l-20.83,12.45c-0.96,0.58-1.49,1.33-1.49,2.13c0,0.8,0.53,1.55,1.5,2.13l20.83,12.45
				c2.07,1.24,5.42,1.23,7.49,0l20.83-12.45c0.96-0.58,1.49-1.33,1.49-2.13c0-0.8-0.53-1.55-1.49-2.13l-20.83-12.45
				C313.74,315.09,312.39,314.79,311.03,314.79z"/>
			<g>
				<path class="st46" d="M338.11,325.51v-7.38l-1.31-0.75c-0.37,2.31-2.99,3.82-5.18,4.14l-14.93,9.04l-6.51,2.43l-20.79-11.11
					l0.48-0.29c-1.78-0.86-2.73-2.82-3.7-4.62l-1.4,0.86l-0.83,0.24v7.51l0,0c0,0.96,0.61,1.91,1.83,2.64l20.83,12.45
					c2.44,1.46,6.41,1.46,8.85,0l20.83-12.45c1.2-0.72,1.81-1.66,1.83-2.6C338.11,325.59,338.11,325.55,338.11,325.51L338.11,325.51
					z"/>
				<g>
					<g>
						<linearGradient id="SVGID_25_" gradientUnits="userSpaceOnUse" x1="289.1874" y1="304.937" x2="332.2554" y2="329.8024">
							<stop  offset="0" style="stop-color:#BCBEFF"/>
							<stop  offset="0.2271" style="stop-color:#AAADF8"/>
							<stop  offset="0.6802" style="stop-color:#7C83E5"/>
							<stop  offset="1" style="stop-color:#5761D7"/>
						</linearGradient>
						<path class="st51" d="M338.11,318.95v-4.89l-1.31-0.75c-0.37,2.31-2.99,3.82-5.18,4.14l-14.93,9.04l-6.51,2.43l-20.79-11.11
							l0.48-0.29c-1.78-0.86-2.73-2.82-3.7-4.62l-1.4,0.86l-0.83,0.24v5.01l0,0c0,0.96,0.61,1.91,1.83,2.64l20.83,12.45
							c2.44,1.46,6.41,1.46,8.85,0l20.83-12.45c1.2-0.72,1.81-1.66,1.83-2.6C338.11,319.03,338.11,318.99,338.11,318.95
							L338.11,318.95z"/>
						<path class="st44" d="M331.63,317.45l-14.93,9.04l-5.67,2.12v6.61c1.6,0,3.2-0.36,4.42-1.09l20.83-12.45
							c1.2-0.72,1.81-1.66,1.83-2.6c0-0.04,0-0.08,0-0.13l0,0v-4.89l-1.19-0.69h-0.12C336.39,315.64,333.8,317.14,331.63,317.45z"/>
						<g>
							<linearGradient id="SVGID_26_" gradientUnits="userSpaceOnUse" x1="283.9467" y1="314.061" x2="338.1136" y2="314.061">
								<stop  offset="0" style="stop-color:#E9E9FD"/>
								<stop  offset="0.3601" style="stop-color:#D3D2F9"/>
								<stop  offset="0.7062" style="stop-color:#C5C4F7"/>
								<stop  offset="1" style="stop-color:#C0BFF6"/>
							</linearGradient>
							<path class="st52" d="M306.61,329.15l-20.83-12.45c-2.44-1.46-2.44-3.83,0-5.29l20.83-12.45c2.44-1.46,6.41-1.46,8.85,0
								l20.83,12.45c2.44,1.46,2.44,3.83,0,5.29l-20.83,12.45C313.01,330.61,309.05,330.61,306.61,329.15z"/>
						</g>
						<g>
							<path class="st41" d="M336.28,316.7l-20.83,12.45c-2.44,1.46-6.41,1.46-8.85,0l-20.83-12.45c-1.09-0.65-1.69-1.49-1.81-2.34
								c-0.14,1.06,0.46,2.14,1.81,2.95l20.83,12.45c2.44,1.46,6.41,1.46,8.85,0l20.83-12.45c1.35-0.81,1.95-1.89,1.81-2.95
								C337.98,315.22,337.37,316.05,336.28,316.7z"/>
						</g>
					</g>
				</g>
			</g>
		</g>
	</g>
</g>
<g>
	<g>
		<g>
			<g>
				<path class="st5" d="M310.7,327.14c-1.2,0-2.41-0.32-3.48-0.96l-18.67-11.11c-0.42-0.25-0.67-0.7-0.67-1.21s0.25-0.95,0.67-1.21
					l17.57-10.35c2.42-1.44,5.43-1.44,7.85,0.01l18.23,10.85c0.42,0.25,0.67,0.7,0.67,1.21s-0.25,0.95-0.67,1.21l-18.02,10.61
					C313.11,326.82,311.91,327.14,310.7,327.14z M310.04,301.81c-1.26,0-2.52,0.33-3.64,1.01l-17.57,10.35
					c-0.24,0.15-0.39,0.41-0.39,0.7c0,0.29,0.15,0.56,0.39,0.7l18.67,11.11c1.98,1.18,4.43,1.18,6.4,0l18.02-10.61
					c0.24-0.15,0.39-0.41,0.39-0.7c0-0.29-0.15-0.56-0.39-0.7l-18.23-10.85h0C312.57,302.14,311.3,301.81,310.04,301.81z"/>
			</g>
			<g class="st53">
				<linearGradient id="SVGID_27_" gradientUnits="userSpaceOnUse" x1="288.1555" y1="303.3344" x2="332.5909" y2="303.3344">
					<stop  offset="0" style="stop-color:#5761D7"/>
					<stop  offset="0.0726" style="stop-color:#5472D8"/>
					<stop  offset="0.2791" style="stop-color:#4E9CDB"/>
					<stop  offset="0.4801" style="stop-color:#49BDDD"/>
					<stop  offset="0.6715" style="stop-color:#45D5DF"/>
					<stop  offset="0.8493" style="stop-color:#43E3E0"/>
					<stop  offset="1" style="stop-color:#42E8E0"/>
				</linearGradient>
				<path class="st54" d="M313.83,291.71c-2.34-1.4-5.23-1.4-7.57,0l-17.57,10.34c-0.71,0.42-0.71,1.49,0,1.91l18.67,11.11
					c2.07,1.24,4.62,1.24,6.68,0l18.01-10.61c0.71-0.42,0.71-1.49,0-1.91L313.83,291.71z"/>
			</g>
			<g class="st53">
				<linearGradient id="SVGID_28_" gradientUnits="userSpaceOnUse" x1="288.1555" y1="295.4639" x2="332.5909" y2="295.4639">
					<stop  offset="0" style="stop-color:#5761D7"/>
					<stop  offset="0.0726" style="stop-color:#5472D8"/>
					<stop  offset="0.2791" style="stop-color:#4E9CDB"/>
					<stop  offset="0.4801" style="stop-color:#49BDDD"/>
					<stop  offset="0.6715" style="stop-color:#45D5DF"/>
					<stop  offset="0.8493" style="stop-color:#43E3E0"/>
					<stop  offset="1" style="stop-color:#42E8E0"/>
				</linearGradient>
				<path class="st55" d="M313.83,283.84c-2.34-1.4-5.23-1.4-7.57,0l-17.57,10.34c-0.71,0.42-0.71,1.49,0,1.91l18.67,11.11
					c2.07,1.24,4.62,1.24,6.68,0l18.01-10.61c0.71-0.42,0.71-1.49,0-1.91L313.83,283.84z"/>
			</g>
			<g class="st53">
				<linearGradient id="SVGID_29_" gradientUnits="userSpaceOnUse" x1="288.1555" y1="287.5934" x2="332.5909" y2="287.5934">
					<stop  offset="0" style="stop-color:#5761D7"/>
					<stop  offset="0.0726" style="stop-color:#5472D8"/>
					<stop  offset="0.2791" style="stop-color:#4E9CDB"/>
					<stop  offset="0.4801" style="stop-color:#49BDDD"/>
					<stop  offset="0.6715" style="stop-color:#45D5DF"/>
					<stop  offset="0.8493" style="stop-color:#43E3E0"/>
					<stop  offset="1" style="stop-color:#42E8E0"/>
				</linearGradient>
				<path class="st56" d="M313.83,275.97c-2.34-1.4-5.23-1.4-7.57,0l-17.57,10.34c-0.71,0.42-0.71,1.49,0,1.91l18.67,11.11
					c2.07,1.24,4.62,1.24,6.68,0l18.01-10.61c0.71-0.42,0.71-1.49,0-1.91L313.83,275.97z"/>
			</g>
			<g class="st53">
				<linearGradient id="SVGID_30_" gradientUnits="userSpaceOnUse" x1="288.1555" y1="279.7229" x2="332.5909" y2="279.7229">
					<stop  offset="0" style="stop-color:#5761D7"/>
					<stop  offset="0.0726" style="stop-color:#5472D8"/>
					<stop  offset="0.2791" style="stop-color:#4E9CDB"/>
					<stop  offset="0.4801" style="stop-color:#49BDDD"/>
					<stop  offset="0.6715" style="stop-color:#45D5DF"/>
					<stop  offset="0.8493" style="stop-color:#43E3E0"/>
					<stop  offset="1" style="stop-color:#42E8E0"/>
				</linearGradient>
				<path class="st57" d="M313.83,268.1c-2.34-1.4-5.23-1.4-7.57,0l-17.57,10.34c-0.71,0.42-0.71,1.49,0,1.91l18.67,11.11
					c2.07,1.24,4.62,1.24,6.68,0l18.01-10.61c0.71-0.42,0.71-1.49,0-1.91L313.83,268.1z"/>
			</g>
			<linearGradient id="SVGID_31_" gradientUnits="userSpaceOnUse" x1="288.1555" y1="291.5286" x2="332.5909" y2="291.5286">
				<stop  offset="0" style="stop-color:#5761D7"/>
				<stop  offset="0.0726" style="stop-color:#5472D8"/>
				<stop  offset="0.2791" style="stop-color:#4E9CDB"/>
				<stop  offset="0.4801" style="stop-color:#49BDDD"/>
				<stop  offset="0.6715" style="stop-color:#45D5DF"/>
				<stop  offset="0.8493" style="stop-color:#43E3E0"/>
				<stop  offset="1" style="stop-color:#42E8E0"/>
			</linearGradient>
			<path class="st58" d="M332.06,278.95l-18.23-10.85c-2.34-1.4-5.23-1.4-7.57,0l-17.57,10.34c-0.36,0.21-0.53,0.58-0.53,0.96v23.61
				c0,0.37,0.18,0.74,0.53,0.96l18.67,11.11c2.07,1.24,4.62,1.24,6.68,0l18.01-10.61c0.36-0.21,0.53-0.58,0.53-0.96v-23.61l0,0
				C332.59,279.53,332.41,279.16,332.06,278.95z"/>
			<g class="st53">
				<linearGradient id="SVGID_32_" gradientUnits="userSpaceOnUse" x1="288.1555" y1="279.7229" x2="332.5909" y2="279.7229">
					<stop  offset="0" style="stop-color:#5761D7"/>
					<stop  offset="0.0726" style="stop-color:#5472D8"/>
					<stop  offset="0.2791" style="stop-color:#4E9CDB"/>
					<stop  offset="0.4801" style="stop-color:#49BDDD"/>
					<stop  offset="0.6715" style="stop-color:#45D5DF"/>
					<stop  offset="0.8493" style="stop-color:#43E3E0"/>
					<stop  offset="1" style="stop-color:#42E8E0"/>
				</linearGradient>
				<path class="st59" d="M313.83,268.1c-2.34-1.4-5.23-1.4-7.57,0l-17.57,10.34c-0.71,0.42-0.71,1.49,0,1.91l18.67,11.11
					c2.07,1.24,4.62,1.24,6.68,0l18.01-10.61c0.71-0.42,0.71-1.49,0-1.91L313.83,268.1z"/>
			</g>
			<linearGradient id="SVGID_33_" gradientUnits="userSpaceOnUse" x1="288.156" y1="285.6246" x2="332.5902" y2="285.6246">
				<stop  offset="0" style="stop-color:#5761D7"/>
				<stop  offset="0.0726" style="stop-color:#5472D8"/>
				<stop  offset="0.2791" style="stop-color:#4E9CDB"/>
				<stop  offset="0.4801" style="stop-color:#49BDDD"/>
				<stop  offset="0.6715" style="stop-color:#45D5DF"/>
				<stop  offset="0.8493" style="stop-color:#43E3E0"/>
				<stop  offset="1" style="stop-color:#42E8E0"/>
			</linearGradient>
			<path class="st60" d="M332.06,279.77l-18.01,10.61c-2.07,1.24-4.62,1.24-6.68,0l-18.67-11.11c-0.18-0.1-0.31-0.25-0.4-0.41
				c-0.27,0.5-0.14,1.18,0.4,1.5l18.67,11.11c2.07,1.24,4.62,1.24,6.68,0l18.01-10.61c0.54-0.32,0.67-1,0.4-1.5
				C332.36,279.53,332.23,279.67,332.06,279.77z"/>
		</g>
	</g>
	<g>
		<polygon class="st61" points="310.37,286.12 299,279.33 310.37,272.53 321.75,279.33 		"/>
		<path class="st5" d="M310.37,286.76c-0.11,0-0.21-0.03-0.31-0.09l-11.38-6.8c-0.19-0.11-0.31-0.32-0.31-0.55
			c0-0.23,0.12-0.44,0.31-0.55l11.38-6.8c0.19-0.11,0.43-0.11,0.62,0l11.37,6.8c0.19,0.11,0.31,0.32,0.31,0.55
			c0,0.23-0.12,0.44-0.31,0.55l-11.37,6.8C310.59,286.73,310.48,286.76,310.37,286.76z M300.23,279.33l10.14,6.06l10.14-6.06
			l-10.14-6.06L300.23,279.33z"/>
	</g>
</g>
</svg>
